<svg width="23" height="20" viewBox="0 0 23 20" fill="none" xmlns="http://www.w3.org/2000/svg">
<g clip-path="url(#clip0)">
<path fill-rule="evenodd" clip-rule="evenodd" d="M10.3027 0.379204C10.7442 0.130602 11.2424 0 11.7491 0C12.2559 0 12.754 0.130602 13.1956 0.379204C13.6372 0.627806 14.0072 0.986017 14.27 1.41927L14.2728 1.42394L22.5971 15.3207L22.6051 15.3343C22.8625 15.7801 22.9988 16.2856 23.0002 16.8004C23.0016 17.3152 22.8683 17.8214 22.6133 18.2687C22.3584 18.716 21.9908 19.0887 21.5471 19.3498C21.1034 19.6109 20.599 19.7512 20.0842 19.7569L20.0734 19.757L3.41403 19.7569C2.89924 19.7513 2.39491 19.6109 1.9512 19.3498C1.50749 19.0887 1.13988 18.716 0.884943 18.2687C0.630002 17.8214 0.496617 17.3152 0.498058 16.8004C0.4995 16.2856 0.635718 15.7801 0.893159 15.3343L0.901143 15.3207L9.22544 1.42395L10.0685 1.92897L9.22826 1.41927C9.49106 0.986017 9.8611 0.627806 10.3027 0.379204ZM10.91 2.43673L2.5921 16.3229C2.50839 16.4701 2.46412 16.6365 2.46365 16.8059C2.46317 16.9775 2.50763 17.1462 2.59261 17.2953C2.67759 17.4444 2.80013 17.5687 2.94803 17.6557C3.09463 17.742 3.2611 17.7887 3.43112 17.7913H20.0671C20.2372 17.7887 20.4036 17.742 20.5502 17.6557C20.6981 17.5687 20.8207 17.4444 20.9057 17.2953C20.9906 17.1462 21.0351 16.9775 21.0346 16.8059C21.0341 16.6365 20.9899 16.4701 20.9062 16.3229L12.5894 2.43869C12.589 2.43803 12.5886 2.43738 12.5882 2.43673C12.5007 2.29319 12.3778 2.17449 12.2313 2.092C12.0841 2.00913 11.918 1.96559 11.7491 1.96559C11.5802 1.96559 11.4142 2.00913 11.267 2.092C11.1204 2.17449 10.9976 2.29319 10.91 2.43673Z" fill="#FE4D67"/>
<path fill-rule="evenodd" clip-rule="evenodd" d="M11.7494 5.9978C12.2922 5.9978 12.7322 6.43782 12.7322 6.9806V10.9118C12.7322 11.4546 12.2922 11.8946 11.7494 11.8946C11.2066 11.8946 10.7666 11.4546 10.7666 10.9118V6.9806C10.7666 6.43782 11.2066 5.9978 11.7494 5.9978Z" fill="#FE4D67"/>
<path fill-rule="evenodd" clip-rule="evenodd" d="M10.7666 14.8429C10.7666 14.3001 11.2066 13.8601 11.7494 13.8601H11.7592C12.302 13.8601 12.742 14.3001 12.742 14.8429C12.742 15.3857 12.302 15.8257 11.7592 15.8257H11.7494C11.2066 15.8257 10.7666 15.3857 10.7666 14.8429Z" fill="#FE4D67"/>
</g>
<defs>
<clipPath id="clip0">
<rect width="22.5022" height="19.757" fill="white" transform="translate(0.498047)"/>
</clipPath>
</defs>
</svg>
