<svg width="101" height="91" viewBox="0 0 101 91" fill="none" xmlns="http://www.w3.org/2000/svg">
<g clip-path="url(#clip0)">
<path d="M0.364378 0.466461L90.5171 0.466461C96.0399 0.466461 100.517 4.94361 100.517 10.4665V89.7398C96.6287 90.2633 92.66 90.5335 88.6281 90.5335C39.8716 90.5335 0.34668 51.0086 0.34668 2.25208C0.34668 1.65547 0.352598 1.06025 0.364378 0.466461Z" fill="url(#paint0_linear)"/>
<path fill-rule="evenodd" clip-rule="evenodd" d="M55.3848 22.4955C55.9882 22.1557 56.669 21.9772 57.3615 21.9772C58.054 21.9772 58.7349 22.1557 59.3383 22.4955C59.9417 22.8352 60.4474 23.3247 60.8066 23.9168L60.8104 23.9232L72.1864 42.9145L72.1973 42.933C72.5491 43.5423 72.7353 44.2331 72.7372 44.9366C72.7392 45.6402 72.5569 46.332 72.2085 46.9432C71.8601 47.5544 71.3577 48.0638 70.7514 48.4206C70.145 48.7774 69.4558 48.9692 68.7523 48.9769L68.7375 48.9771L45.9708 48.977C45.2673 48.9693 44.5781 48.7774 43.9717 48.4206C43.3653 48.0638 42.863 47.5544 42.5146 46.9432C42.1662 46.332 41.9839 45.6402 41.9859 44.9366C41.9878 44.2331 42.174 43.5423 42.5258 42.933L42.5367 42.9145L53.9127 23.9232L55.0648 24.6134L53.9165 23.9168C54.2757 23.3247 54.7814 22.8352 55.3848 22.4955ZM56.2148 25.3073L44.8476 44.284C44.7332 44.4852 44.6727 44.7126 44.672 44.9441C44.6714 45.1787 44.7321 45.4093 44.8483 45.613C44.9644 45.8167 45.1319 45.9865 45.334 46.1055C45.5343 46.2234 45.7618 46.2872 45.9942 46.2908H68.7289C68.9613 46.2872 69.1887 46.2234 69.3891 46.1055C69.5912 45.9865 69.7587 45.8167 69.8748 45.613C69.991 45.4093 70.0517 45.1787 70.0511 44.9441C70.0504 44.7126 69.9899 44.4853 69.8756 44.2841L58.5099 25.31C58.5093 25.3091 58.5088 25.3082 58.5083 25.3073C58.3886 25.1111 58.2207 24.9489 58.0205 24.8362C57.8193 24.7229 57.5924 24.6634 57.3615 24.6634C57.1307 24.6634 56.9038 24.7229 56.7026 24.8362C56.5024 24.9489 56.3344 25.1111 56.2148 25.3073Z" fill="white"/>
<path fill-rule="evenodd" clip-rule="evenodd" d="M57.3621 30.1738C58.1039 30.1738 58.7052 30.7751 58.7052 31.5169V36.8892C58.7052 37.631 58.1039 38.2323 57.3621 38.2323C56.6204 38.2323 56.019 37.631 56.019 36.8892V31.5169C56.019 30.7751 56.6204 30.1738 57.3621 30.1738Z" fill="white"/>
<path fill-rule="evenodd" clip-rule="evenodd" d="M56.019 42.2616C56.019 41.5198 56.6204 40.9185 57.3621 40.9185H57.3756C58.1173 40.9185 58.7187 41.5198 58.7187 42.2616C58.7187 43.0034 58.1173 43.6047 57.3756 43.6047H57.3621C56.6204 43.6047 56.019 43.0034 56.019 42.2616Z" fill="white"/>
</g>
<defs>
<linearGradient id="paint0_linear" x1="100.517" y1="45.5" x2="0.346679" y2="45.5" gradientUnits="userSpaceOnUse">
<stop stop-color="#E02626"/>
<stop offset="1" stop-color="#FF7D75"/>
</linearGradient>
<clipPath id="clip0">
<rect width="100.17" height="90.0671" fill="white" transform="translate(0.34668 0.466461)"/>
</clipPath>
</defs>
</svg>
