<svg width="101" height="91" viewBox="0 0 101 91" fill="none" xmlns="http://www.w3.org/2000/svg">
<g clip-path="url(#clip0)">
<path d="M0.364378 0.533539L90.5171 0.533539C96.0399 0.533539 100.517 5.01069 100.517 10.5335V89.8069C96.6287 90.3303 92.66 90.6006 88.6281 90.6006C39.8716 90.6006 0.34668 51.0757 0.34668 2.31915C0.34668 1.72255 0.352598 1.12732 0.364378 0.533539Z" fill="url(#paint0_linear)"/>
<path fill-rule="evenodd" clip-rule="evenodd" d="M55.3848 22.5625C55.9882 22.2228 56.669 22.0443 57.3615 22.0443C58.054 22.0443 58.7349 22.2228 59.3383 22.5625C59.9417 22.9023 60.4474 23.3918 60.8066 23.9839L60.8104 23.9903L72.1864 42.9816L72.1973 43.0001C72.5491 43.6094 72.7353 44.3001 72.7372 45.0037C72.7392 45.7072 72.5569 46.3991 72.2085 47.0103C71.8601 47.6215 71.3577 48.1309 70.7514 48.4877C70.145 48.8445 69.4558 49.0363 68.7523 49.044L68.7375 49.0442L45.9708 49.0441C45.2673 49.0364 44.5781 48.8445 43.9717 48.4877C43.3653 48.1309 42.863 47.6215 42.5146 47.0103C42.1662 46.3991 41.9839 45.7072 41.9859 45.0037C41.9878 44.3001 42.174 43.6094 42.5258 43.0001L42.5367 42.9816L53.9127 23.9903L55.0648 24.6804L53.9165 23.9839C54.2757 23.3918 54.7814 22.9023 55.3848 22.5625ZM56.2148 25.3744L44.8476 44.3511C44.7332 44.5523 44.6727 44.7797 44.672 45.0112C44.6714 45.2457 44.7321 45.4763 44.8483 45.6801C44.9644 45.8838 45.1319 46.0536 45.334 46.1725C45.5343 46.2904 45.7618 46.3543 45.9942 46.3579H68.7289C68.9613 46.3543 69.1887 46.2904 69.3891 46.1725C69.5912 46.0536 69.7587 45.8838 69.8748 45.6801C69.991 45.4763 70.0517 45.2457 70.0511 45.0112C70.0504 44.7797 69.9899 44.5523 69.8756 44.3512L58.5099 25.377C58.5093 25.3761 58.5088 25.3752 58.5083 25.3744C58.3886 25.1782 58.2207 25.016 58.0205 24.9032C57.8193 24.79 57.5924 24.7305 57.3615 24.7305C57.1307 24.7305 56.9038 24.79 56.7026 24.9032C56.5024 25.016 56.3344 25.1782 56.2148 25.3744Z" fill="white"/>
<path fill-rule="evenodd" clip-rule="evenodd" d="M57.3621 30.2409C58.1039 30.2409 58.7052 30.8422 58.7052 31.5839V36.9563C58.7052 37.6981 58.1039 38.2994 57.3621 38.2994C56.6204 38.2994 56.019 37.6981 56.019 36.9563V31.5839C56.019 30.8422 56.6204 30.2409 57.3621 30.2409Z" fill="white"/>
<path fill-rule="evenodd" clip-rule="evenodd" d="M56.019 42.3287C56.019 41.5869 56.6204 40.9856 57.3621 40.9856H57.3756C58.1173 40.9856 58.7187 41.5869 58.7187 42.3287C58.7187 43.0704 58.1173 43.6718 57.3756 43.6718H57.3621C56.6204 43.6718 56.019 43.0704 56.019 42.3287Z" fill="white"/>
</g>
<defs>
<linearGradient id="paint0_linear" x1="0.34668" y1="45.5671" x2="110.578" y2="45.5671" gradientUnits="userSpaceOnUse">
<stop stop-color="#FFDC98"/>
<stop offset="1" stop-color="#FDB702"/>
</linearGradient>
<clipPath id="clip0">
<rect width="100.17" height="90.0671" fill="white" transform="translate(0.34668 0.533539)"/>
</clipPath>
</defs>
</svg>
