<svg width="23" height="20" viewBox="0 0 23 20" fill="none" xmlns="http://www.w3.org/2000/svg">
<g clip-path="url(#clip0)">
<path fill-rule="evenodd" clip-rule="evenodd" d="M9.80461 0.379204C10.2462 0.130602 10.7443 0 11.2511 0C11.7578 0 12.256 0.130602 12.6976 0.379204C13.1391 0.627806 13.5092 0.986017 13.772 1.41927L13.7748 1.42394L22.0991 15.3207L22.1071 15.3343C22.3645 15.7801 22.5007 16.2856 22.5022 16.8004C22.5036 17.3152 22.3702 17.8214 22.1153 18.2687C21.8603 18.716 21.4927 19.0887 21.049 19.3498C20.6053 19.6109 20.101 19.7512 19.5862 19.7569L19.5754 19.757L2.91599 19.7569C2.40119 19.7513 1.89686 19.6109 1.45315 19.3498C1.00945 19.0887 0.641837 18.716 0.386896 18.2687C0.131955 17.8214 -0.0014299 17.3152 1.15603e-05 16.8004C0.00145308 16.2856 0.137671 15.7801 0.395112 15.3343L0.403096 15.3207L8.72739 1.42395L9.57048 1.92897L8.73021 1.41927C8.99301 0.986017 9.36305 0.627806 9.80461 0.379204ZM10.412 2.43673L2.09405 16.3229C2.01034 16.4701 1.96607 16.6365 1.9656 16.8059C1.96512 16.9775 2.00958 17.1462 2.09456 17.2953C2.17954 17.4444 2.30208 17.5687 2.44998 17.6557C2.59659 17.742 2.76305 17.7887 2.93308 17.7913H19.5691C19.7391 17.7887 19.9056 17.742 20.0522 17.6557C20.2001 17.5687 20.3226 17.4444 20.4076 17.2953C20.4926 17.1462 20.537 16.9775 20.5366 16.8059C20.5361 16.6365 20.4918 16.4701 20.4081 16.3229L12.0914 2.43869C12.091 2.43803 12.0906 2.43738 12.0902 2.43673C12.0027 2.29319 11.8798 2.17449 11.7332 2.092C11.5861 2.00913 11.42 1.96559 11.2511 1.96559C11.0822 1.96559 10.9161 2.00913 10.7689 2.092C10.6224 2.17449 10.4995 2.29319 10.412 2.43673Z" fill="#E02626"/>
<path fill-rule="evenodd" clip-rule="evenodd" d="M11.2514 5.9978C11.7941 5.9978 12.2341 6.43782 12.2341 6.9806V10.9118C12.2341 11.4546 11.7941 11.8946 11.2514 11.8946C10.7086 11.8946 10.2686 11.4546 10.2686 10.9118V6.9806C10.2686 6.43782 10.7086 5.9978 11.2514 5.9978Z" fill="#E02626"/>
<path fill-rule="evenodd" clip-rule="evenodd" d="M10.2686 14.8429C10.2686 14.3001 10.7086 13.8601 11.2514 13.8601H11.2612C11.804 13.8601 12.244 14.3001 12.244 14.8429C12.244 15.3857 11.804 15.8257 11.2612 15.8257H11.2514C10.7086 15.8257 10.2686 15.3857 10.2686 14.8429Z" fill="#E02626"/>
</g>
<defs>
<clipPath id="clip0">
<rect width="22.5022" height="19.757" fill="white"/>
</clipPath>
</defs>
</svg>
