<svg width="101" height="91" viewBox="0 0 101 91" fill="none" xmlns="http://www.w3.org/2000/svg">
<g clip-path="url(#clip0)">
<path d="M0.75598 0.466461L90.9087 0.466461C96.4315 0.466461 100.909 4.94361 100.909 10.4665V89.7398C97.0203 90.2633 93.0516 90.5335 89.0197 90.5335C40.2632 90.5335 0.738281 51.0086 0.738281 2.25208C0.738281 1.65547 0.744199 1.06025 0.75598 0.466461Z" fill="url(#paint0_linear)"/>
<path fill-rule="evenodd" clip-rule="evenodd" d="M55.7764 22.4955C56.3798 22.1557 57.0606 21.9772 57.7531 21.9772C58.4456 21.9772 59.1265 22.1557 59.7299 22.4955C60.3333 22.8352 60.839 23.3247 61.1982 23.9168L61.202 23.9232L72.578 42.9145L72.5889 42.933C72.9407 43.5423 73.1269 44.2331 73.1288 44.9366C73.1308 45.6402 72.9485 46.332 72.6001 46.9432C72.2517 47.5544 71.7493 48.0638 71.143 48.4206C70.5366 48.7774 69.8474 48.9692 69.1439 48.9769L69.1291 48.9771L46.3624 48.977C45.6589 48.9693 44.9697 48.7774 44.3633 48.4206C43.7569 48.0638 43.2546 47.5544 42.9062 46.9432C42.5578 46.332 42.3755 45.6402 42.3775 44.9366C42.3794 44.2331 42.5656 43.5423 42.9174 42.933L42.9283 42.9145L54.3043 23.9232L55.4564 24.6134L54.3081 23.9168C54.6673 23.3247 55.173 22.8352 55.7764 22.4955ZM56.6064 25.3073L45.2392 44.284C45.1248 44.4852 45.0643 44.7126 45.0636 44.9441C45.063 45.1787 45.1237 45.4093 45.2399 45.613C45.356 45.8167 45.5235 45.9865 45.7256 46.1055C45.9259 46.2234 46.1534 46.2872 46.3858 46.2908H69.1205C69.3529 46.2872 69.5803 46.2234 69.7807 46.1055C69.9828 45.9865 70.1503 45.8167 70.2664 45.613C70.3826 45.4093 70.4433 45.1787 70.4427 44.9441C70.442 44.7126 70.3815 44.4853 70.2672 44.2841L58.9015 25.31C58.9009 25.3091 58.9004 25.3082 58.8999 25.3073C58.7802 25.1111 58.6123 24.9489 58.4121 24.8362C58.2109 24.7229 57.984 24.6634 57.7531 24.6634C57.5223 24.6634 57.2954 24.7229 57.0942 24.8362C56.894 24.9489 56.726 25.1111 56.6064 25.3073Z" fill="white"/>
<path fill-rule="evenodd" clip-rule="evenodd" d="M57.7537 30.1738C58.4955 30.1738 59.0968 30.7751 59.0968 31.5169V36.8892C59.0968 37.631 58.4955 38.2323 57.7537 38.2323C57.012 38.2323 56.4106 37.631 56.4106 36.8892V31.5169C56.4106 30.7751 57.012 30.1738 57.7537 30.1738Z" fill="white"/>
<path fill-rule="evenodd" clip-rule="evenodd" d="M56.4106 42.2616C56.4106 41.5198 57.012 40.9185 57.7537 40.9185H57.7672C58.5089 40.9185 59.1103 41.5198 59.1103 42.2616C59.1103 43.0034 58.5089 43.6047 57.7672 43.6047H57.7537C57.012 43.6047 56.4106 43.0034 56.4106 42.2616Z" fill="white"/>
</g>
<defs>
<linearGradient id="paint0_linear" x1="100.909" y1="45.5" x2="0.738283" y2="45.5" gradientUnits="userSpaceOnUse">
<stop stop-color="#991616"/>
<stop offset="1" stop-color="#CF3329"/>
</linearGradient>
<clipPath id="clip0">
<rect width="100.17" height="90.0671" fill="white" transform="translate(0.738281 0.466461)"/>
</clipPath>
</defs>
</svg>
