<svg width="20" height="20" viewBox="0 0 20 20" fill="none" xmlns="http://www.w3.org/2000/svg">
<path d="M16.7957 16.4853L10.0933 19.9771C10.0348 20.0076 9.96517 20.0076 9.90669 19.9771L3.20454 16.4853C3.13778 16.4506 3.09595 16.3816 3.09595 16.3063V2.29097L3.44751 1.91582H16.5527L16.9043 2.29097V16.3063C16.9043 16.3816 16.8624 16.4506 16.7957 16.4853Z" fill="#8BCAFF"/>
<path opacity="0.21" fill-rule="evenodd" clip-rule="evenodd" d="M10 20V1.91582H16.5527L16.9043 2.29097V16.3063C16.9043 16.3816 16.8624 16.4506 16.7957 16.4853L10.0933 19.9771C10.064 19.9924 10.032 20 10 20Z" fill="#074C86"/>
<path d="M3.09595 1.56422V2.29097H16.9043V1.56422L10.0001 1.21265L3.09595 1.56422Z" fill="#60B8FF"/>
<path d="M15.2186 15.5029L10.0932 18.1731C10.0348 18.2036 9.96512 18.2036 9.90664 18.1731L4.78145 15.5029C4.71469 15.4681 4.67285 15.3991 4.67285 15.3239V2.29097L5.02441 1.91582H14.9756L15.3271 2.29097V15.3238C15.3272 15.3991 15.2854 15.4681 15.2186 15.5029V15.5029Z" fill="#0083FD"/>
<path d="M4.67285 1.56422V2.29097H15.3271V1.56422L10 1.21265L4.67285 1.56422Z" fill="#0072FC"/>
<path d="M17.5824 1.21266H2.41744C2.41744 1.21266 1.66767 0.527148 1.72478 0.418516C1.78392 0.306094 1.86963 0.209805 1.97357 0.138047C2.09967 0.0509766 2.2526 0 2.41744 0H17.5824C17.8831 0 18.1442 0.169688 18.2751 0.418555C18.3322 0.527148 17.5824 1.21266 17.5824 1.21266V1.21266Z" fill="#5A5A5A"/>
<path d="M17.5826 0.837497H2.41761C2.1169 0.837497 1.85624 0.667575 1.72534 0.418747C1.66819 0.52738 1.6355 0.650856 1.6355 0.782106C1.6355 1.21406 1.98565 1.56422 2.41761 1.56422H17.5826C18.0146 1.56422 18.3647 1.21406 18.3647 0.782106C18.3647 0.650856 18.332 0.52738 18.2749 0.418747C18.144 0.667575 17.8833 0.837497 17.5826 0.837497V0.837497Z" fill="#4C4C4C"/>
<path opacity="0.13" fill-rule="evenodd" clip-rule="evenodd" d="M10 18.1959V1.91582H14.9756L15.3271 2.29097V15.3238C15.3271 15.3239 15.3271 15.324 15.3271 15.324C15.3271 15.3992 15.2853 15.4682 15.2186 15.5029L10.0932 18.1731C10.064 18.1883 10.032 18.1959 10 18.1959Z" fill="black"/>
<path d="M10.4051 11.8122C10.3445 11.8122 10.2921 11.7902 10.248 11.7461C10.2039 11.702 10.1818 11.6496 10.1818 11.589V10.7456H7.57725C7.51662 10.7456 7.46425 10.7235 7.42015 10.6794C7.37605 10.6353 7.354 10.583 7.354 10.5223V9.64588C7.354 9.50256 7.38983 9.38404 7.4615 9.29033L9.93379 6.17309C9.9834 6.11245 10.0275 6.07387 10.0661 6.05733C10.1102 6.03528 10.1681 6.02425 10.2397 6.02425H11.4883C11.5489 6.02425 11.6013 6.0463 11.6454 6.0904C11.6895 6.1345 11.7115 6.18687 11.7115 6.2475V9.42263H12.4226C12.4833 9.42263 12.5356 9.44468 12.5797 9.48878C12.6238 9.53287 12.6459 9.58524 12.6459 9.64588V10.5223C12.6459 10.583 12.6238 10.6353 12.5797 10.6794C12.5356 10.7235 12.4833 10.7456 12.4226 10.7456H11.7115V11.589C11.7115 11.6496 11.6895 11.702 11.6454 11.7461C11.6013 11.7902 11.5489 11.8122 11.4883 11.8122H10.4051ZM10.2232 7.90121L9.01598 9.42263H10.2232V7.90121Z" fill="#074FA6"/>
</svg>
