<svg width="20" height="20" viewBox="0 0 20 20" fill="none" xmlns="http://www.w3.org/2000/svg">
<path d="M16.7957 16.4853L10.0933 19.9771C10.0348 20.0076 9.96517 20.0076 9.90669 19.9771L3.20454 16.4853C3.13778 16.4506 3.09595 16.3816 3.09595 16.3063V2.29097L3.44751 1.91582H16.5527L16.9043 2.29097V16.3063C16.9043 16.3816 16.8624 16.4506 16.7957 16.4853Z" fill="#8BCAFF"/>
<path opacity="0.21" fill-rule="evenodd" clip-rule="evenodd" d="M10 20V1.91582H16.5527L16.9043 2.29097V16.3063C16.9043 16.3816 16.8624 16.4506 16.7957 16.4853L10.0933 19.9771C10.064 19.9924 10.032 20 10 20Z" fill="#074C86"/>
<path d="M3.09595 1.56422V2.29097H16.9043V1.56422L10.0001 1.21265L3.09595 1.56422Z" fill="#60B8FF"/>
<path d="M15.2186 15.5029L10.0932 18.1731C10.0348 18.2036 9.96512 18.2036 9.90664 18.1731L4.78145 15.5029C4.71469 15.4681 4.67285 15.3991 4.67285 15.3239V2.29097L5.02441 1.91582H14.9756L15.3271 2.29097V15.3238C15.3272 15.3991 15.2854 15.4681 15.2186 15.5029V15.5029Z" fill="#0083FD"/>
<path d="M4.67285 1.56422V2.29097H15.3271V1.56422L10 1.21265L4.67285 1.56422Z" fill="#0072FC"/>
<path d="M17.5824 1.21266H2.41744C2.41744 1.21266 1.66767 0.527148 1.72478 0.418516C1.78392 0.306094 1.86963 0.209805 1.97357 0.138047C2.09967 0.0509766 2.2526 0 2.41744 0H17.5824C17.8831 0 18.1442 0.169688 18.2751 0.418555C18.3322 0.527148 17.5824 1.21266 17.5824 1.21266V1.21266Z" fill="#5A5A5A"/>
<path d="M17.5826 0.837497H2.41761C2.1169 0.837497 1.85624 0.667575 1.72534 0.418747C1.66819 0.52738 1.6355 0.650856 1.6355 0.782106C1.6355 1.21406 1.98565 1.56422 2.41761 1.56422H17.5826C18.0146 1.56422 18.3647 1.21406 18.3647 0.782106C18.3647 0.650856 18.332 0.52738 18.2749 0.418747C18.144 0.667575 17.8833 0.837497 17.5826 0.837497V0.837497Z" fill="#4C4C4C"/>
<path opacity="0.13" fill-rule="evenodd" clip-rule="evenodd" d="M10 18.1959V1.91582H14.9756L15.3271 2.29097V15.3238C15.3271 15.3239 15.3271 15.324 15.3271 15.324C15.3271 15.3992 15.2853 15.4682 15.2186 15.5029L10.0932 18.1731C10.064 18.1883 10.032 18.1959 10 18.1959Z" fill="black"/>
<path d="M9.99594 10.5079C10.2405 10.5079 10.4443 10.4454 10.6073 10.3204C10.7758 10.1954 10.8601 10.0215 10.8601 9.79867C10.8601 9.61389 10.7867 9.46444 10.64 9.35031C10.4932 9.23074 10.2976 9.17096 10.053 9.17096C9.97149 9.17096 9.8954 9.18183 9.82475 9.20357C9.75953 9.22531 9.67801 9.25792 9.58019 9.30139C9.48236 9.35031 9.41171 9.37476 9.36823 9.37476H8.09651C8.03129 9.37476 7.97694 9.35302 7.93346 9.30955C7.88999 9.26607 7.87096 9.21444 7.8764 9.15466L8.12096 6.24436C8.1264 6.18458 8.14813 6.13295 8.18618 6.08947C8.22966 6.04599 8.28129 6.02425 8.34107 6.02425H11.8302C11.8899 6.02425 11.9416 6.04599 11.9851 6.08947C12.0285 6.13295 12.0503 6.18458 12.0503 6.24436V7.10848C12.0503 7.16826 12.0285 7.21989 11.9851 7.26337C11.9416 7.30685 11.8899 7.32859 11.8302 7.32859H9.4579L9.40084 8.05412C9.6291 7.92913 9.88181 7.86663 10.159 7.86663C10.5829 7.86663 10.9606 7.94271 11.2921 8.09488C11.6291 8.24706 11.8927 8.46988 12.0829 8.76336C12.2731 9.0514 12.3682 9.3965 12.3682 9.79867C12.3682 10.2226 12.2649 10.5867 12.0584 10.8911C11.8519 11.19 11.5693 11.4182 11.2106 11.5758C10.8519 11.7334 10.447 11.8122 9.99594 11.8122C9.51769 11.8122 9.10193 11.7334 8.74867 11.5758C8.39541 11.4128 8.12368 11.2008 7.93346 10.94C7.74325 10.6737 7.64271 10.3883 7.63184 10.084C7.63184 10.0351 7.64814 9.99432 7.68075 9.96171C7.71879 9.92367 7.76227 9.90465 7.81118 9.90465H8.8465C8.9715 9.90465 9.06932 9.94813 9.13997 10.0351C9.2541 10.1818 9.36823 10.2987 9.48236 10.3856C9.60192 10.4671 9.77312 10.5079 9.99594 10.5079Z" fill="#074FA6"/>
</svg>
