<svg width="101" height="91" viewBox="0 0 101 91" fill="none" xmlns="http://www.w3.org/2000/svg">
<g clip-path="url(#clip0)">
<path d="M0.75598 0.533539L90.9087 0.533539C96.4315 0.533539 100.909 5.01069 100.909 10.5335V89.8069C97.0203 90.3303 93.0516 90.6006 89.0197 90.6006C40.2632 90.6006 0.738281 51.0757 0.738281 2.31915C0.738281 1.72255 0.744199 1.12732 0.75598 0.533539Z" fill="url(#paint0_linear)"/>
<path fill-rule="evenodd" clip-rule="evenodd" d="M55.7764 22.5625C56.3798 22.2228 57.0606 22.0443 57.7531 22.0443C58.4456 22.0443 59.1265 22.2228 59.7299 22.5625C60.3333 22.9023 60.839 23.3918 61.1982 23.9839L61.202 23.9903L72.578 42.9816L72.5889 43.0001C72.9407 43.6094 73.1269 44.3001 73.1288 45.0037C73.1308 45.7072 72.9485 46.3991 72.6001 47.0103C72.2517 47.6215 71.7493 48.1309 71.143 48.4877C70.5366 48.8445 69.8474 49.0363 69.1439 49.044L69.1291 49.0442L46.3624 49.0441C45.6589 49.0364 44.9697 48.8445 44.3633 48.4877C43.7569 48.1309 43.2546 47.6215 42.9062 47.0103C42.5578 46.3991 42.3755 45.7072 42.3775 45.0037C42.3794 44.3001 42.5656 43.6094 42.9174 43.0001L42.9283 42.9816L54.3043 23.9903L55.4564 24.6804L54.3081 23.9839C54.6673 23.3918 55.173 22.9023 55.7764 22.5625ZM56.6064 25.3744L45.2392 44.3511C45.1248 44.5523 45.0643 44.7797 45.0636 45.0112C45.063 45.2457 45.1237 45.4763 45.2399 45.6801C45.356 45.8838 45.5235 46.0536 45.7256 46.1725C45.9259 46.2904 46.1534 46.3543 46.3858 46.3579H69.1205C69.3529 46.3543 69.5803 46.2904 69.7807 46.1725C69.9828 46.0536 70.1503 45.8838 70.2664 45.6801C70.3826 45.4763 70.4433 45.2457 70.4427 45.0112C70.442 44.7797 70.3815 44.5523 70.2672 44.3512L58.9015 25.377C58.9009 25.3761 58.9004 25.3752 58.8999 25.3744C58.7802 25.1782 58.6123 25.016 58.4121 24.9032C58.2109 24.79 57.984 24.7305 57.7531 24.7305C57.5223 24.7305 57.2954 24.79 57.0942 24.9032C56.894 25.016 56.726 25.1782 56.6064 25.3744Z" fill="white"/>
<path fill-rule="evenodd" clip-rule="evenodd" d="M57.7537 30.2409C58.4955 30.2409 59.0968 30.8422 59.0968 31.5839V36.9563C59.0968 37.6981 58.4955 38.2994 57.7537 38.2994C57.012 38.2994 56.4106 37.6981 56.4106 36.9563V31.5839C56.4106 30.8422 57.012 30.2409 57.7537 30.2409Z" fill="white"/>
<path fill-rule="evenodd" clip-rule="evenodd" d="M56.4106 42.3287C56.4106 41.5869 57.012 40.9856 57.7537 40.9856H57.7672C58.5089 40.9856 59.1103 41.5869 59.1103 42.3287C59.1103 43.0704 58.5089 43.6718 57.7672 43.6718H57.7537C57.012 43.6718 56.4106 43.0704 56.4106 42.3287Z" fill="white"/>
</g>
<defs>
<linearGradient id="paint0_linear" x1="0.738281" y1="45.5671" x2="100.909" y2="45.5671" gradientUnits="userSpaceOnUse">
<stop stop-color="#FEB156"/>
<stop offset="1" stop-color="#FC782E"/>
</linearGradient>
<clipPath id="clip0">
<rect width="100.17" height="90.0671" fill="white" transform="translate(0.738281 0.533539)"/>
</clipPath>
</defs>
</svg>
