<svg width="16" height="16" viewBox="0 0 16 16" fill="none" xmlns="http://www.w3.org/2000/svg">
<path fill-rule="evenodd" clip-rule="evenodd" d="M5.99984 1.33334C6.28679 1.33334 6.54155 1.51696 6.63229 1.78919L9.99984 11.8918L11.3674 7.78919C11.4581 7.51696 11.7129 7.33334 11.9998 7.33334H14.6665C15.0347 7.33334 15.3332 7.63182 15.3332 8.00001C15.3332 8.3682 15.0347 8.66668 14.6665 8.66668H12.4803L10.6323 14.2108C10.5415 14.4831 10.2868 14.6667 9.99984 14.6667C9.71288 14.6667 9.45812 14.4831 9.36738 14.2108L5.99984 4.1082L4.63229 8.21083C4.54155 8.48306 4.28679 8.66668 3.99984 8.66668H1.33317C0.964981 8.66668 0.666504 8.3682 0.666504 8.00001C0.666504 7.63182 0.964981 7.33334 1.33317 7.33334H3.51933L5.36738 1.78919C5.45812 1.51696 5.71288 1.33334 5.99984 1.33334Z" fill="#909398"/>
</svg>
