<svg width="75" height="67" viewBox="0 0 75 67" fill="none" xmlns="http://www.w3.org/2000/svg">
<g clip-path="url(#clip0)">
<path d="M73.6733 7.07735V63.174C67.9878 65.3808 61.8777 66.5802 55.5152 66.5802C25.1392 66.5802 0.44286 39.2096 0.44286 5.35309C0.44286 3.6892 0.502557 2.04088 0.619688 0.410634H67.4352C70.6274 0.410634 73.6733 3.29996 73.6733 7.07735Z" stroke="#CCD2DC" stroke-width="0.821268"/>
<path d="M37.7647 32.34C37.7647 31.8698 38.1459 31.4886 38.6162 31.4886H38.6247C39.095 31.4886 39.4762 31.8698 39.4762 32.34C39.4762 32.8103 39.095 33.1915 38.6247 33.1915H38.6162C38.1459 33.1915 37.7647 32.8103 37.7647 32.34Z" fill="#CCD2DC"/>
<path d="M42.022 31.4886C41.5518 31.4886 41.1706 31.8698 41.1706 32.34C41.1706 32.8103 41.5518 33.1915 42.022 33.1915H42.0305C42.5008 33.1915 42.882 32.8103 42.882 32.34C42.882 31.8698 42.5008 31.4886 42.0305 31.4886H42.022Z" fill="#CCD2DC"/>
<path fill-rule="evenodd" clip-rule="evenodd" d="M47.7779 21.2711H39.672C39.1968 21.2713 38.7306 21.4041 38.3267 21.6546C37.9232 21.9048 37.5975 22.2625 37.386 22.6875L37.3854 22.6887L34.4567 28.5377C34.3942 28.6561 34.3589 28.791 34.3589 28.9342V34.043C34.3589 34.7204 34.628 35.3701 35.107 35.8492C35.5861 36.3282 36.2358 36.5973 36.9133 36.5973H50.5366C51.2141 36.5973 51.8638 36.3282 52.3429 35.8492C52.8219 35.3701 53.091 34.7204 53.091 34.043V28.9342C53.091 28.791 53.0557 28.6561 52.9932 28.5377L50.0645 22.6887L50.064 22.6876C49.8525 22.2625 49.5267 21.9048 49.1232 21.6546C48.7193 21.4041 48.2531 21.2713 47.7779 21.2711ZM50.861 28.0827L48.5407 23.4489L48.5395 23.4465C48.469 23.3047 48.3604 23.1853 48.2257 23.1018C48.0912 23.0184 47.936 22.9741 47.7776 22.974H39.6723C39.5139 22.9741 39.3588 23.0184 39.2242 23.1018C39.0896 23.1853 38.9809 23.3047 38.9104 23.4465L38.1479 23.0676L38.9092 23.4489L36.5889 28.0827H50.861ZM36.0618 29.7857V34.043C36.0618 34.2688 36.1515 34.4854 36.3112 34.645C36.4709 34.8047 36.6874 34.8944 36.9133 34.8944H50.5366C50.7625 34.8944 50.979 34.8047 51.1387 34.645C51.2984 34.4854 51.3881 34.2688 51.3881 34.043V29.7857H36.0618Z" fill="#CCD2DC"/>
</g>
<defs>
<clipPath id="clip0">
<rect width="74.0517" height="66.9909" fill="white" transform="translate(0.0322266)"/>
</clipPath>
</defs>
</svg>
