<svg width="26" height="28" viewBox="0 0 26 28" fill="none" xmlns="http://www.w3.org/2000/svg">
<path fill-rule="evenodd" clip-rule="evenodd" d="M6.15721 7.03017C6.6365 7.50931 6.63663 8.28627 6.15749 8.76557C4.7849 10.1386 3.85025 11.8878 3.47172 13.792C3.09319 15.6962 3.28779 17.6699 4.0309 19.4635C4.77401 21.2571 6.03226 22.7901 7.64657 23.8687C9.26088 24.9472 11.1587 25.5229 13.1002 25.5229C15.0417 25.5229 16.9395 24.9472 18.5538 23.8687C20.1681 22.7901 21.4264 21.2571 22.1695 19.4635C22.9126 17.6699 23.1072 15.6962 22.7287 13.792C22.3502 11.8878 21.4155 10.1386 20.0429 8.76557C19.5638 8.28627 19.5639 7.50931 20.0432 7.03017C20.5225 6.55103 21.2995 6.55116 21.7786 7.03046C23.4943 8.74676 24.6627 10.9333 25.1358 13.3135C25.609 15.6938 25.3657 18.1609 24.4368 20.4029C23.5079 22.6449 21.9351 24.5612 19.9172 25.9093C17.8994 27.2575 15.527 27.9771 13.1002 27.9771C10.6734 27.9771 8.30105 27.2575 6.28316 25.9093C4.26528 24.5612 2.69246 22.6449 1.76357 20.4029C0.834684 18.1609 0.591441 15.6938 1.0646 13.3135C1.53776 10.9333 2.70607 8.74676 4.42181 7.03046C4.90095 6.55116 5.67791 6.55103 6.15721 7.03017Z" fill="#58C955"/>
<path fill-rule="evenodd" clip-rule="evenodd" d="M13.1063 0.977112C13.7841 0.977112 14.3334 1.52651 14.3334 2.20422V14.4753C14.3334 15.153 13.7841 15.7024 13.1063 15.7024C12.4286 15.7024 11.8792 15.153 11.8792 14.4753V2.20422C11.8792 1.52651 12.4286 0.977112 13.1063 0.977112Z" fill="#58C955"/>
</svg>
