<svg width="91" height="83" viewBox="0 0 91 83" fill="none" xmlns="http://www.w3.org/2000/svg">
<g clip-path="url(#clip0)">
<path d="M90.4829 5.39586V77.7303C83.4138 80.5187 75.8031 82.0365 67.8732 82.0365C30.5621 82.0365 0.31543 48.4346 0.31543 6.98454C0.31543 4.78854 0.400326 2.61457 0.566672 0.466461H85.9827C88.4471 0.466461 90.449 2.66698 90.4829 5.39586Z" fill="#E7FCE4"/>
<path fill-rule="evenodd" clip-rule="evenodd" d="M45.1572 28.0302C45.6365 28.5093 45.6366 29.2863 45.1575 29.7656C43.7849 31.1386 42.8502 32.8878 42.4717 34.792C42.0932 36.6962 42.2878 38.6699 43.0309 40.4635C43.774 42.2571 45.0323 43.7901 46.6466 44.8687C48.2609 45.9472 50.1587 46.5229 52.1002 46.5229C54.0417 46.5229 55.9395 45.9472 57.5538 44.8687C59.1681 43.7901 60.4264 42.2571 61.1695 40.4635C61.9126 38.6699 62.1072 36.6962 61.7287 34.792C61.3502 32.8878 60.4155 31.1386 59.0429 29.7656C58.5638 29.2863 58.5639 28.5093 59.0432 28.0302C59.5225 27.551 60.2995 27.5512 60.7786 28.0305C62.4943 29.7468 63.6627 31.9333 64.1358 34.3135C64.609 36.6938 64.3657 39.1609 63.4368 41.4029C62.5079 43.6449 60.9351 45.5612 58.9172 46.9093C56.8994 48.2575 54.527 48.9771 52.1002 48.9771C49.6734 48.9771 47.301 48.2575 45.2832 46.9093C43.2653 45.5612 41.6925 43.6449 40.7636 41.4029C39.8347 39.1609 39.5914 36.6938 40.0646 34.3135C40.5378 31.9333 41.7061 29.7468 43.4218 28.0305C43.9009 27.5512 44.6779 27.551 45.1572 28.0302Z" fill="#58C955"/>
<path fill-rule="evenodd" clip-rule="evenodd" d="M52.1063 21.9771C52.7841 21.9771 53.3334 22.5265 53.3334 23.2042V35.4753C53.3334 36.153 52.7841 36.7024 52.1063 36.7024C51.4286 36.7024 50.8792 36.153 50.8792 35.4753V23.2042C50.8792 22.5265 51.4286 21.9771 52.1063 21.9771Z" fill="#58C955"/>
</g>
<defs>
<clipPath id="clip0">
<rect width="90.1675" height="81.5701" fill="white" transform="translate(0.31543 0.466461)"/>
</clipPath>
</defs>
</svg>
