<svg width="16" height="16" viewBox="0 0 16 16" fill="none" xmlns="http://www.w3.org/2000/svg">
<path fill-rule="evenodd" clip-rule="evenodd" d="M4.6999 2.03349C5.57506 1.15832 6.76205 0.666656 7.99973 0.666656C9.2374 0.666656 10.4244 1.15832 11.2996 2.03349C12.1747 2.90866 12.6664 4.09565 12.6664 5.33332C12.6664 7.56843 13.1444 8.95641 13.585 9.76409C13.8062 10.1696 14.0216 10.4356 14.1712 10.5936C14.2462 10.6727 14.3051 10.7252 14.3406 10.7548C14.3583 10.7696 14.3702 10.7786 14.3754 10.7825C14.3762 10.783 14.3768 10.7835 14.3773 10.7839C14.6163 10.948 14.722 11.2483 14.6378 11.5265C14.5527 11.8077 14.2935 12 13.9997 12H1.99973C1.70595 12 1.4468 11.8077 1.36166 11.5265C1.27744 11.2483 1.3832 10.948 1.62219 10.7839C1.62265 10.7835 1.62329 10.7831 1.62409 10.7825C1.62922 10.7786 1.64113 10.7696 1.65887 10.7548C1.69435 10.7252 1.75327 10.6727 1.82826 10.5936C1.97788 10.4356 2.19327 10.1696 2.41446 9.76409C2.85501 8.95641 3.33306 7.56843 3.33306 5.33332C3.33306 4.09565 3.82473 2.90866 4.6999 2.03349ZM1.62892 10.7793C1.62898 10.7793 1.62903 10.7792 1.62908 10.7792C1.62908 10.7792 1.62908 10.7792 1.62907 10.7792L1.62892 10.7793ZM3.43261 10.6667H12.5668C12.5161 10.5835 12.4652 10.4956 12.4145 10.4026C11.855 9.3769 11.3331 7.76488 11.3331 5.33332C11.3331 4.44927 10.9819 3.60142 10.3568 2.9763C9.73163 2.35118 8.88378 1.99999 7.99973 1.99999C7.11567 1.99999 6.26783 2.35118 5.6427 2.9763C5.01758 3.60142 4.66639 4.44927 4.66639 5.33332C4.66639 7.76488 4.14444 9.3769 3.58499 10.4026C3.53426 10.4956 3.48333 10.5835 3.43261 10.6667Z" fill="white"/>
<path fill-rule="evenodd" clip-rule="evenodd" d="M6.51195 13.4233C6.83043 13.2386 7.23838 13.347 7.42313 13.6655C7.48173 13.7665 7.56585 13.8504 7.66706 13.9087C7.76826 13.967 7.883 13.9976 7.9998 13.9976C8.11659 13.9976 8.23133 13.967 8.33254 13.9087C8.43374 13.8504 8.51786 13.7665 8.57646 13.6655C8.76121 13.347 9.16916 13.2386 9.48764 13.4233C9.80613 13.6081 9.91454 14.016 9.7298 14.3345C9.55399 14.6376 9.30164 14.8892 8.99802 15.064C8.69441 15.2389 8.35018 15.331 7.9998 15.331C7.64942 15.331 7.30519 15.2389 7.00157 15.064C6.69795 14.8892 6.44561 14.6376 6.2698 14.3345C6.08505 14.016 6.19347 13.6081 6.51195 13.4233Z" fill="white"/>
</svg>
