<svg width="24" height="20" viewBox="0 0 24 20" fill="none" xmlns="http://www.w3.org/2000/svg">
<path d="M6.21541 12.8617C6.02107 12.8617 5.82382 12.8352 5.62788 12.7795C5.25438 12.6734 5.03777 12.285 5.14404 11.9121C5.2503 11.5391 5.63946 11.3228 6.01272 11.4289C6.40718 11.5409 6.81897 11.3118 6.93114 10.9181C7.04332 10.5244 6.81386 10.113 6.41964 10.001C5.03693 9.61317 3.78682 8.65383 2.90186 7.30031C2.01189 5.93916 1.5415 4.29834 1.5415 2.5553V2.54986C1.54394 1.86455 1.81249 1.22353 2.29769 0.742406C2.78074 0.263437 3.42096 0 4.10125 0C4.10439 0 4.10739 4.6875e-05 4.11054 4.6875e-05C5.52213 0.0050625 6.66649 1.15589 6.66152 2.56542C6.66016 2.95233 6.34558 3.26508 5.95844 3.26508C5.9576 3.26508 5.95675 3.26508 5.95591 3.26508C5.5676 3.26372 5.25386 2.94825 5.25527 2.5605C5.25752 1.9252 4.74175 1.40653 4.10557 1.40428C3.79661 1.40222 3.50725 1.52198 3.28858 1.73883C3.06986 1.95567 2.94883 2.24456 2.94775 2.5523V2.5553C2.94775 4.00402 3.34961 5.41655 4.07936 6.53264C4.77808 7.60134 5.74507 8.35322 6.80219 8.64975C7.94454 8.97436 8.60805 10.164 8.28363 11.3025C8.01508 12.2452 7.15164 12.8616 6.21541 12.8617V12.8617Z" fill="#E4624C"/>
<path d="M17.2861 12.8617C16.3497 12.8618 15.4865 12.2453 15.2178 11.3024C14.8934 10.164 15.557 8.97431 16.697 8.65036C17.7564 8.35317 18.7234 7.60134 19.4221 6.53264C20.1519 5.4165 20.5537 4.00397 20.5537 2.5553V2.54986C20.5527 2.24461 20.4316 1.95572 20.2129 1.73883C19.9952 1.52297 19.7067 1.40428 19.4001 1.40428C19.3987 1.40428 19.3973 1.40428 19.3959 1.40428C18.7597 1.40653 18.244 1.9252 18.2463 2.5605C18.2476 2.94825 17.9339 3.26372 17.5456 3.26508C17.5448 3.26508 17.5439 3.26508 17.5431 3.26508C17.1559 3.26508 16.8414 2.95238 16.84 2.56542C16.8351 1.15589 17.9794 0.0050625 19.391 4.6875e-05C19.3941 4.6875e-05 19.3971 0 19.4002 0C20.0806 0 20.7208 0.263437 21.2038 0.742406C21.6891 1.22353 21.9576 1.86455 21.96 2.54738V2.5553C21.96 4.29834 21.4896 5.93916 20.5996 7.30031C19.7147 8.65383 18.4646 9.61317 17.0796 10.0017C16.6876 10.113 16.4582 10.5245 16.5703 10.9181C16.6825 11.3118 17.0945 11.5409 17.4888 11.4289C17.862 11.3228 18.2512 11.5391 18.3575 11.9121C18.4637 12.2851 18.2471 12.6735 17.8736 12.7796C17.6779 12.8352 17.4803 12.8617 17.2861 12.8617V12.8617Z" fill="#CB3B28"/>
<path d="M15.3018 19.8123H8.19991C7.8116 19.8123 7.49679 19.498 7.49679 19.1102C7.49679 17.5725 8.32479 16.1709 9.6415 15.4207V12.4847C9.33752 12.3555 9.04619 12.1988 8.77122 12.0162C7.26743 11.0176 6.36963 9.34481 6.36963 7.54148V0.702141C6.36963 0.314391 6.68444 0 7.07275 0H16.4291C16.8174 0 17.1322 0.314344 17.1322 0.702141V7.54148C17.1322 9.34486 16.2344 11.0176 14.7306 12.0162C14.4556 12.1988 14.1643 12.3555 13.8603 12.4847V15.4207C15.1771 16.1709 16.0051 17.5725 16.0051 19.1102C16.005 19.498 15.6902 19.8123 15.3018 19.8123V19.8123Z" fill="#FF9377"/>
<path d="M14.7306 12.0162C16.2344 11.0176 17.1322 9.34486 17.1322 7.54148V0.702141C17.1322 0.314391 16.8174 0 16.4291 0H11.751V19.8123H15.3019C15.6903 19.8123 16.0051 19.4979 16.0051 19.1101C16.0051 17.5725 15.1771 16.1709 13.8604 15.4207V12.4847C14.1643 12.3555 14.4557 12.1988 14.7306 12.0162V12.0162Z" fill="#E4624C"/>
<path d="M13.626 14.5956H9.87598C9.48766 14.5956 9.17285 14.2812 9.17285 13.8934C9.17285 13.5056 9.48766 13.1913 9.87598 13.1913H13.626C14.0143 13.1913 14.3291 13.5056 14.3291 13.8934C14.3291 14.2812 14.0143 14.5956 13.626 14.5956Z" fill="#E4624C"/>
<path d="M13.626 13.1913H11.751V14.5955H13.626C14.0143 14.5955 14.3291 14.2812 14.3291 13.8934C14.3291 13.5056 14.0143 13.1913 13.626 13.1913Z" fill="#CB3B28"/>
<path d="M13.5772 5.19211C13.5772 4.18645 12.7579 3.36825 11.7508 3.36825C10.8799 3.36825 10.1262 3.98695 9.95863 4.83937C9.88377 5.2199 10.132 5.5889 10.5131 5.66362C10.8937 5.73839 11.2637 5.49047 11.3385 5.10994C11.3769 4.91442 11.5504 4.77248 11.7508 4.77248C11.9824 4.77248 12.1709 4.96069 12.1709 5.19206C12.1709 5.42344 11.9825 5.61164 11.7508 5.61164C11.3624 5.61164 11.0476 5.92598 11.0476 6.31378C11.0476 6.70158 11.3624 7.01592 11.7508 7.01592C11.9824 7.01592 12.1709 7.20412 12.1709 7.4355C12.1709 7.66687 11.9825 7.85508 11.7508 7.85508C11.5423 7.85508 11.3633 7.70025 11.3347 7.49498C11.3319 7.47548 11.3306 7.45542 11.3306 7.4355C11.3306 7.04775 11.0158 6.73336 10.6274 6.73336C10.2391 6.73336 9.92432 7.0477 9.92432 7.4355C9.92432 7.52011 9.93022 7.60537 9.94189 7.68895C10.067 8.58422 10.8447 9.25931 11.7508 9.25931C12.7578 9.25931 13.5772 8.44115 13.5772 7.4355C13.5772 7.01273 13.432 6.62344 13.1893 6.31378C13.432 6.00417 13.5772 5.61487 13.5772 5.19211V5.19211Z" fill="#E4624C"/>
<path d="M13.5772 5.19211C13.5772 4.18645 12.7578 3.36825 11.7507 3.36825V4.77248C11.9824 4.77248 12.1709 4.96069 12.1709 5.19206C12.1709 5.42344 11.9824 5.61164 11.7507 5.61164V7.01587C11.9824 7.01587 12.1709 7.20408 12.1709 7.43545C12.1709 7.66683 11.9824 7.85503 11.7507 7.85503V9.25926C12.7578 9.25926 13.5772 8.44111 13.5772 7.43545C13.5772 7.01269 13.432 6.62339 13.1893 6.31373C13.432 6.00417 13.5772 5.61487 13.5772 5.19211V5.19211Z" fill="#CB3B28"/>
</svg>
