<svg width="24" height="24" viewBox="0 0 24 24" fill="none" xmlns="http://www.w3.org/2000/svg">
<g clip-path="url(#clip0)">
<path fill-rule="evenodd" clip-rule="evenodd" d="M15.0001 0C15.6026 0 16.091 0.488417 16.091 1.09091V6.54545H21.5455C22.148 6.54545 22.6365 7.03387 22.6365 7.63636C22.6365 8.23886 22.148 8.72727 21.5455 8.72727H15.0001C14.3976 8.72727 13.9092 8.23886 13.9092 7.63636V1.09091C13.9092 0.488417 14.3976 0 15.0001 0Z" fill="#5379FF"/>
<path fill-rule="evenodd" clip-rule="evenodd" d="M7.36328 8.72727C7.36328 8.12478 7.8517 7.63636 8.45419 7.63636H10.636C11.2385 7.63636 11.7269 8.12478 11.7269 8.72727C11.7269 9.32976 11.2385 9.81818 10.636 9.81818H8.45419C7.8517 9.81818 7.36328 9.32976 7.36328 8.72727Z" fill="#5379FF"/>
<path fill-rule="evenodd" clip-rule="evenodd" d="M6.27273 0C5.40475 0 4.57232 0.344804 3.95856 0.95856C3.3448 1.57232 3 2.40475 3 3.27273V10.6108C3.65333 10.1661 4.39004 9.83483 5.18182 9.64519V3.27273C5.18182 2.9834 5.29675 2.70592 5.50134 2.50134C5.70592 2.29675 5.9834 2.18182 6.27273 2.18182H14.5481L20.4545 8.08823V20.7273C20.4545 21.0166 20.3396 21.2941 20.135 21.4987C19.9304 21.7032 19.653 21.8182 19.3636 21.8182H14.5368C14.751 22.3962 14.626 23.0714 14.1616 23.5358C13.8952 23.8022 13.5595 23.9569 13.2125 24H19.3636C20.2316 24 21.064 23.6552 21.6778 23.0414C22.2916 22.4277 22.6364 21.5953 22.6364 20.7273V7.63636C22.6364 7.34704 22.5214 7.06956 22.3168 6.86497L15.7714 0.31952C15.5668 0.114935 15.2893 0 15 0H6.27273ZM12.809 24C12.462 23.9569 12.1263 23.8022 11.8599 23.5358L10.143 21.8189C9.14644 22.4147 7.98031 22.7575 6.73585 22.7575C5.4155 22.7575 4.18506 22.3725 3.15064 21.7088C3.30729 22.207 3.58242 22.6653 3.95856 23.0414C4.57231 23.6552 5.40475 24 6.27273 24H12.809Z" fill="#5379FF"/>
<path fill-rule="evenodd" clip-rule="evenodd" d="M13.0995 14.1818C12.8568 13.38 12.4668 12.6422 11.9609 12H17.1816C17.7841 12 18.2725 12.4884 18.2725 13.0909C18.2725 13.6934 17.7841 14.1818 17.1816 14.1818H13.0995Z" fill="#5379FF"/>
<path fill-rule="evenodd" clip-rule="evenodd" d="M12.9229 18.5455C13.1907 17.8656 13.3498 17.131 13.3787 16.3636H17.1816C17.7841 16.3636 18.2725 16.8521 18.2725 17.4546C18.2725 18.057 17.7841 18.5455 17.1816 18.5455H12.9229Z" fill="#5379FF"/>
<path fill-rule="evenodd" clip-rule="evenodd" d="M2.34337 16.11C2.34337 13.6841 4.30995 11.7175 6.73585 11.7175C9.16174 11.7175 11.1283 13.6841 11.1283 16.11C11.1283 17.2934 10.6604 18.3674 9.89948 19.1572C9.87792 19.1738 9.85718 19.1919 9.83743 19.2117C9.81769 19.2314 9.79954 19.2521 9.78297 19.2737C8.99317 20.0346 7.91915 20.5025 6.73585 20.5025C4.30995 20.5025 2.34337 18.5359 2.34337 16.11ZM10.2609 20.5225C9.29476 21.2954 8.06927 21.7575 6.73585 21.7575C3.61684 21.7575 1.08838 19.229 1.08838 16.11C1.08838 12.991 3.61684 10.4626 6.73585 10.4626C9.85486 10.4626 12.3833 12.991 12.3833 16.11C12.3833 17.4435 11.9212 18.669 11.1483 19.6351L13.4545 21.9413C13.6995 22.1863 13.6995 22.5836 13.4545 22.8287C13.2094 23.0737 12.8121 23.0737 12.567 22.8287L10.2609 20.5225Z" fill="#5379FF"/>
</g>
<defs>
<clipPath id="clip0">
<rect width="24" height="24" fill="white"/>
</clipPath>
</defs>
</svg>
