<svg width="16" height="16" viewBox="0 0 16 16" fill="none" xmlns="http://www.w3.org/2000/svg">
<g clip-path="url(#clip0)">
<path fill-rule="evenodd" clip-rule="evenodd" d="M0.204196 2.05367C-0.0511438 1.79833 -0.0511444 1.38434 0.204195 1.129C0.459535 0.873665 0.873522 0.873665 1.12886 1.129L14.8252 14.8253C15.0805 15.0807 15.0805 15.4947 14.8252 15.75C14.5699 16.0053 14.1559 16.0053 13.9005 15.75L12.1415 13.991C12.0944 13.9926 12.0472 13.9935 12 13.9935L5.82324 13.9935C2.58724 13.9045 -0.00878906 11.251 -0.00878906 7.99349C-0.00878906 6.29777 0.694642 4.76634 1.82564 3.67511L0.204196 2.05367ZM2.77231 4.62178C2.59105 4.79247 2.42164 4.97803 2.26785 5.17673C1.73613 5.8637 1.43987 6.75408 1.3513 7.6269C1.2597 8.52956 1.35808 9.3576 1.72945 10.1139C2.09625 10.861 2.73782 11.4653 3.51987 11.9521C4.26108 12.4135 5.12663 12.6608 5.99947 12.6602H10.8107L2.77231 4.62178Z" fill="#909398"/>
<path fill-rule="evenodd" clip-rule="evenodd" d="M4.8345 3.33002L3.87994 2.37547C4.41828 2.17306 4.99343 2.04582 5.59259 2.00652C6.34567 2.02452 6.93603 2.0612 7.20565 2.1167C7.5033 2.17796 7.79468 2.2615 8.0775 2.36612C9.48884 2.88952 10.6497 3.92866 11.3311 5.25462H11.3344C11.4567 5.49301 11.5632 5.73983 11.6528 5.99349H12C13.0608 5.99349 14.0782 6.41492 14.8284 7.16506C15.5785 7.91521 16 8.93262 16 9.99349C16 11.0544 15.5785 12.0718 14.8284 12.8219C14.7443 12.906 14.6568 12.986 14.5662 13.0618L14.0603 12.5558C14.051 12.5475 14.0418 12.5389 14.0329 12.53L4.86035 3.35741C4.85141 3.34847 4.8428 3.33934 4.8345 3.33002ZM14.4249 11.1029L6.70257 3.38062C6.78088 3.39262 6.85899 3.40663 6.93684 3.42265C7.79188 3.59865 8.58042 4.01096 9.21284 4.61272C9.84527 5.21448 10.2962 5.98157 10.5145 6.82682C10.5905 7.12117 10.856 7.32682 11.16 7.32682H12C12.7072 7.32682 13.3855 7.60777 13.8856 8.10787C14.3857 8.60797 14.6666 9.28624 14.6666 9.99349C14.6666 10.3801 14.5827 10.758 14.4249 11.1029Z" fill="#909398"/>
</g>
<defs>
<clipPath id="clip0">
<rect width="16" height="16" fill="white"/>
</clipPath>
</defs>
</svg>
