<svg width="75" height="67" viewBox="0 0 75 67" fill="none" xmlns="http://www.w3.org/2000/svg">
<g clip-path="url(#clip0)">
<path d="M73.6733 7.07735V63.174C67.9878 65.3808 61.8777 66.5802 55.5152 66.5802C25.1392 66.5802 0.44286 39.2096 0.44286 5.35309C0.44286 3.6892 0.502557 2.04088 0.619688 0.410634H67.4352C70.6274 0.410634 73.6733 3.29996 73.6733 7.07735Z" stroke="#CCD2DC" stroke-width="0.821268"/>
<path fill-rule="evenodd" clip-rule="evenodd" d="M37.7648 20.4196C37.0874 20.4196 36.4376 20.6887 35.9586 21.1678C35.4796 21.6468 35.2104 22.2965 35.2104 22.974V34.8944C35.2104 35.5719 35.4796 36.2216 35.9586 36.7007C36.4376 37.1797 37.0874 37.4488 37.7648 37.4488H49.6853C50.3627 37.4488 51.0125 37.1797 51.4915 36.7007C51.9705 36.2216 52.2397 35.5719 52.2397 34.8944V25.5284C52.2397 25.3025 52.15 25.086 51.9903 24.9263L47.733 20.669C47.5733 20.5093 47.3567 20.4196 47.1309 20.4196H37.7648ZM37.7648 22.1225C37.539 22.1225 37.3224 22.2122 37.1628 22.3719C37.0031 22.5316 36.9134 22.7482 36.9134 22.974V34.8944C36.9134 35.1203 37.0031 35.3368 37.1628 35.4965C37.3224 35.6562 37.539 35.7459 37.7648 35.7459H38.6163V29.7857C38.6163 29.3154 38.9975 28.9342 39.4678 28.9342H47.9824C48.4526 28.9342 48.8338 29.3154 48.8338 29.7857V35.7459H49.6853C49.9111 35.7459 50.1277 35.6562 50.2874 35.4965C50.447 35.3368 50.5367 35.1203 50.5367 34.8944V25.8811L46.7782 22.1225H40.3192V24.6769H46.2794C46.7497 24.6769 47.1309 25.0581 47.1309 25.5284C47.1309 25.9986 46.7497 26.3798 46.2794 26.3798H39.4678C38.9975 26.3798 38.6163 25.9986 38.6163 25.5284V22.1225H37.7648ZM40.3192 30.6371V35.7459H47.1309V30.6371H40.3192Z" fill="#CCD2DC"/>
</g>
<defs>
<clipPath id="clip0">
<rect width="74.0517" height="66.9909" fill="white" transform="translate(0.0322266)"/>
</clipPath>
</defs>
</svg>
