<svg width="91" height="82" viewBox="0 0 91 82" fill="none" xmlns="http://www.w3.org/2000/svg">
<g clip-path="url(#clip0)">
<path d="M90.6944 4.96594V77.3004C83.6253 80.0888 76.0145 81.6066 68.0846 81.6066C30.7735 81.6066 0.526855 48.0047 0.526855 6.55463C0.526855 4.35863 0.611752 2.18466 0.778098 0.0365448H86.1941C88.6586 0.0365448 90.6604 2.23707 90.6944 4.96594Z" fill="#FFF5D9"/>
<path fill-rule="evenodd" clip-rule="evenodd" d="M52.3115 32.7972C51.0689 32.7972 50.0615 33.8046 50.0615 35.0472C50.0615 36.2898 51.0689 37.2972 52.3115 37.2972C53.5542 37.2972 54.5615 36.2898 54.5615 35.0472C54.5615 33.8046 53.5542 32.7972 52.3115 32.7972ZM47.8115 35.0472C47.8115 32.5619 49.8262 30.5472 52.3115 30.5472C54.7968 30.5472 56.8115 32.5619 56.8115 35.0472C56.8115 37.5325 54.7968 39.5472 52.3115 39.5472C49.8262 39.5472 47.8115 37.5325 47.8115 35.0472Z" fill="#FEBA02"/>
<path fill-rule="evenodd" clip-rule="evenodd" d="M52.3115 23.7972C52.0132 23.7972 51.727 23.9157 51.516 24.1267C51.3051 24.3377 51.1865 24.6238 51.1865 24.9222V25.1179C51.1842 25.6993 51.0119 26.2674 50.6909 26.7521C50.3699 27.2369 49.9141 27.6172 49.3797 27.8462C49.2846 27.887 49.1845 27.9144 49.0823 27.9277C48.5967 28.0978 48.074 28.1397 47.5652 28.0474C46.979 27.9411 46.4382 27.6617 46.0124 27.2452L46.0035 27.2365L45.936 27.1689C45.8315 27.0643 45.707 26.9809 45.5705 26.9243C45.4339 26.8677 45.2875 26.8386 45.1396 26.8386C44.9918 26.8386 44.8454 26.8677 44.7088 26.9243C44.5723 26.9809 44.4482 27.0639 44.3437 27.1685L44.3428 27.1694C44.2382 27.2739 44.1552 27.3979 44.0986 27.5345C44.042 27.6711 44.0129 27.8175 44.0129 27.9653C44.0129 28.1132 44.042 28.2596 44.0986 28.3961C44.1552 28.5327 44.2382 28.6568 44.3428 28.7613L44.4195 28.838C44.8361 29.2638 45.1155 29.8047 45.2217 30.3908C45.3259 30.9653 45.259 31.5574 45.0299 32.0938C44.8211 32.6412 44.4556 33.1152 43.9787 33.4563C43.4921 33.8043 42.9121 33.9979 42.3141 34.0119L42.2878 34.0122H42.1865C41.8882 34.0122 41.602 34.1307 41.391 34.3417C41.18 34.5527 41.0615 34.8388 41.0615 35.1372C41.0615 35.4356 41.18 35.7217 41.391 35.9327C41.602 36.1437 41.8882 36.2622 42.1865 36.2622H42.3823C42.9637 36.2645 43.5317 36.4368 44.0165 36.7578C44.4995 37.0777 44.8789 37.5315 45.1082 38.0635C45.3467 38.607 45.4176 39.2094 45.3117 39.7936C45.2055 40.3797 44.926 40.9205 44.5095 41.3464L44.5008 41.3552L44.4333 41.4227C44.3287 41.5272 44.2452 41.6517 44.1886 41.7883C44.132 41.9248 44.1029 42.0712 44.1029 42.2191C44.1029 42.3669 44.132 42.5133 44.1886 42.6499C44.2452 42.7865 44.3282 42.9105 44.4328 43.015L44.4337 43.0159C44.5382 43.1205 44.6623 43.2035 44.7988 43.2601C44.9354 43.3167 45.0818 43.3458 45.2296 43.3458C45.3775 43.3458 45.5239 43.3167 45.6605 43.2601C45.797 43.2035 45.9211 43.1205 46.0256 43.0159L46.1023 42.9392C46.5281 42.5226 47.069 42.2433 47.6552 42.137C48.2296 42.0328 48.8217 42.0997 49.3581 42.3288C49.9055 42.5376 50.3795 42.9031 50.7206 43.38C51.0686 43.8666 51.2622 44.4466 51.2762 45.0446L51.2765 45.0709V45.1722C51.2765 45.4706 51.3951 45.7567 51.606 45.9677C51.817 46.1787 52.1032 46.2972 52.4015 46.2972C52.6999 46.2972 52.986 46.1787 53.197 45.9677C53.408 45.7567 53.5265 45.4706 53.5265 45.1722V44.9809L53.5265 44.9765C53.5289 44.395 53.7011 43.827 54.0222 43.3423C54.3421 42.8591 54.7959 42.4798 55.3279 42.2505C55.8714 42.012 56.4738 41.9411 57.0579 42.047C57.644 42.1533 58.1849 42.4327 58.6107 42.8492L58.6196 42.8579L58.687 42.9254C58.7915 43.03 58.916 43.1135 59.0526 43.1701C59.1892 43.2267 59.3356 43.2558 59.4834 43.2558C59.6312 43.2558 59.7776 43.2267 59.9142 43.1701C60.0508 43.1135 60.1749 43.0305 60.2793 42.9259L60.2802 42.925C60.3848 42.8205 60.4678 42.6965 60.5244 42.5599C60.581 42.4233 60.6102 42.2769 60.6102 42.1291C60.6102 41.9812 60.581 41.8348 60.5244 41.6983C60.4678 41.5617 60.3848 41.4376 60.2802 41.3331L60.2035 41.2564C59.787 40.8306 59.5076 40.2897 59.4013 39.7036C59.2954 39.1195 59.3663 38.5171 59.6048 37.9736C59.8341 37.4415 60.2135 36.9878 60.6966 36.6678C61.1813 36.3468 61.7494 36.1745 62.3308 36.1722L62.3353 36.1722L62.4365 36.1722C62.7349 36.1722 63.021 36.0537 63.232 35.8427C63.443 35.6317 63.5615 35.3456 63.5615 35.0472C63.5615 34.7488 63.443 34.4627 63.232 34.2517C63.021 34.0407 62.7349 33.9222 62.4365 33.9222H62.2453L62.2408 33.9222C61.6594 33.9199 61.0913 33.7476 60.6066 33.4266C60.1218 33.1055 59.7415 32.6498 59.5125 32.1154C59.4717 32.0202 59.4444 31.9202 59.431 31.818C59.261 31.3324 59.2191 30.8097 59.3113 30.3008C59.4176 29.7147 59.697 29.1739 60.1136 28.748L60.1222 28.7392L60.1898 28.6717C60.2944 28.5672 60.3778 28.4427 60.4344 28.3061C60.491 28.1696 60.5202 28.0232 60.5202 27.8753C60.5202 27.7275 60.491 27.5811 60.4344 27.4445C60.3778 27.3079 60.2948 27.1839 60.1902 27.0794L60.1893 27.0785C60.0849 26.9739 59.9608 26.8909 59.8242 26.8343C59.6876 26.7777 59.5412 26.7486 59.3934 26.7486C59.2456 26.7486 59.0992 26.7777 58.9626 26.8343C58.826 26.8909 58.7019 26.9739 58.5975 27.0785L58.5207 27.1552C58.0949 27.5718 57.554 27.8511 56.9679 27.9574C56.3837 28.0633 55.7813 27.9924 55.2378 27.7538C54.7058 27.5245 54.2521 27.1452 53.9322 26.6621C53.6111 26.1774 53.4389 25.6093 53.4365 25.0279L53.4365 25.0234V24.9222C53.4365 24.6238 53.318 24.3377 53.107 24.1267C52.896 23.9157 52.6099 23.7972 52.3115 23.7972ZM60.6365 38.4222L61.6657 38.8764C61.6067 39.0101 61.5892 39.1584 61.6152 39.3021C61.641 39.4443 61.7083 39.5757 61.8086 39.6796L61.8703 39.7413C62.1839 40.0546 62.4331 40.4271 62.6029 40.8366C62.7727 41.2464 62.8602 41.6855 62.8602 42.1291C62.8602 42.5726 62.7727 43.0118 62.6029 43.4215C62.4331 43.8312 62.1841 44.2034 61.8703 44.5169L61.0753 43.7209L61.8712 44.516C61.5578 44.8298 61.1855 45.0787 60.7758 45.2486C60.3661 45.4184 59.9269 45.5058 59.4834 45.5058C59.0399 45.5058 58.6007 45.4184 58.191 45.2486C57.7815 45.0788 57.4094 44.83 57.096 44.5164L57.0339 44.4543C56.93 44.354 56.7987 44.2867 56.6565 44.2609C56.5127 44.2348 56.3644 44.2524 56.2308 44.3114L56.2197 44.3163C56.0886 44.3725 55.9768 44.4657 55.8981 44.5846C55.8196 44.703 55.7774 44.8417 55.7765 44.9838V45.1722C55.7765 46.0673 55.4209 46.9257 54.788 47.5587C54.1551 48.1916 53.2966 48.5472 52.4015 48.5472C51.5064 48.5472 50.648 48.1916 50.015 47.5587C49.3821 46.9257 49.0265 46.0673 49.0265 45.1722V45.0871C49.0212 44.944 48.9739 44.8055 48.8906 44.6889C48.8052 44.5696 48.6859 44.4787 48.5482 44.428C48.526 44.4199 48.504 44.411 48.4823 44.4014C48.3486 44.3424 48.2003 44.3248 48.0566 44.3509C47.9144 44.3767 47.783 44.444 47.6791 44.5443L47.6175 44.606C47.3041 44.9196 46.9316 45.1688 46.5221 45.3386C46.1124 45.5084 45.6732 45.5958 45.2296 45.5958C44.7861 45.5958 44.3469 45.5084 43.9372 45.3386C43.5279 45.1689 43.156 44.9203 42.8427 44.6069C42.5289 44.2934 42.28 43.9212 42.1101 43.5115C41.9403 43.1018 41.8529 42.6626 41.8529 42.2191C41.8529 41.7755 41.9403 41.3364 42.1101 40.9266C42.28 40.5169 42.5289 40.1447 42.8427 39.8313L42.9044 39.7696C43.0047 39.6657 43.072 39.5343 43.0978 39.3921C43.1239 39.2484 43.1063 39.1001 43.0473 38.9664L43.0424 38.9554C42.9863 38.8243 42.893 38.7125 42.7741 38.6338C42.6557 38.5553 42.517 38.5131 42.375 38.5122H42.1865C41.2914 38.5122 40.433 38.1566 39.8 37.5237C39.1671 36.8907 38.8115 36.0323 38.8115 35.1372C38.8115 34.2421 39.1671 33.3836 39.8 32.7507C40.433 32.1178 41.2914 31.7622 42.1865 31.7622H42.2716C42.4147 31.7569 42.5532 31.7096 42.6698 31.6262C42.7891 31.5409 42.88 31.4216 42.9307 31.2839C42.9389 31.2616 42.9477 31.2396 42.9573 31.218C43.0163 31.0843 43.0339 30.936 43.0078 30.7922C42.982 30.65 42.9147 30.5187 42.8144 30.4148L42.7527 30.3531C42.4389 30.0397 42.19 29.6675 42.0201 29.2577C41.8503 28.848 41.7629 28.4088 41.7629 27.9653C41.7629 27.5218 41.8503 27.0826 42.0201 26.6729C42.1899 26.2634 42.4387 25.8913 42.7523 25.578C43.0656 25.2644 43.4377 25.0156 43.8472 24.8458C44.2569 24.676 44.6961 24.5886 45.1396 24.5886C45.5832 24.5886 46.0224 24.676 46.4321 24.8458C46.8418 25.0157 47.214 25.2646 47.5275 25.5784L47.5891 25.6401C47.693 25.7404 47.8244 25.8077 47.9666 25.8335C48.1103 25.8596 48.2586 25.842 48.3923 25.783C48.4643 25.7512 48.5393 25.7271 48.616 25.7111C48.6944 25.6578 48.7621 25.5896 48.815 25.5098C48.8934 25.3914 48.9356 25.2527 48.9365 25.1106V24.9222C48.9365 24.0271 49.2921 23.1686 49.925 22.5357C50.558 21.9028 51.4164 21.5472 52.3115 21.5472C53.2066 21.5472 54.0651 21.9028 54.698 22.5357C55.3309 23.1686 55.6865 24.0271 55.6865 24.9222V25.0206C55.6874 25.1627 55.7296 25.3014 55.8081 25.4198C55.8868 25.5387 55.9986 25.632 56.1297 25.6882L56.1408 25.6929C56.2745 25.7519 56.4227 25.7696 56.5665 25.7435C56.7087 25.7177 56.84 25.6504 56.9439 25.5501L57.0056 25.4884C57.319 25.1746 57.6913 24.9257 58.101 24.7558C58.5107 24.586 58.9499 24.4986 59.3934 24.4986C59.8369 24.4986 60.2761 24.586 60.6858 24.7558C61.0955 24.9257 61.4678 25.1746 61.7812 25.4884C62.0946 25.8017 62.3432 26.1736 62.5129 26.5829C62.6827 26.9926 62.7702 27.4318 62.7702 27.8753C62.7702 28.3188 62.6827 28.758 62.5129 29.1677C62.3431 29.5773 62.0944 29.9493 61.7808 30.2627L61.7187 30.3248C61.6183 30.4287 61.551 30.56 61.5252 30.7022C61.4992 30.846 61.5167 30.9943 61.5757 31.128C61.6075 31.2 61.6316 31.275 61.6476 31.3516C61.7009 31.4301 61.7691 31.4978 61.8489 31.5506C61.9674 31.6291 62.1061 31.6713 62.2481 31.6722H62.4365C63.3316 31.6722 64.1901 32.0278 64.823 32.6607C65.4559 33.2936 65.8115 34.1521 65.8115 35.0472C65.8115 35.9423 65.4559 36.8007 64.823 37.4337C64.1901 38.0666 63.3316 38.4222 62.4365 38.4222H62.3381C62.1961 38.4231 62.0574 38.4653 61.9389 38.5438C61.82 38.6225 61.7267 38.7343 61.6706 38.8654L60.6365 38.4222Z" fill="#FEBA02"/>
</g>
<defs>
<clipPath id="clip0">
<rect width="90.1675" height="81.5701" fill="white" transform="translate(0.526855 0.0365448)"/>
</clipPath>
</defs>
</svg>
