<svg width="28" height="28" viewBox="0 0 28 28" fill="none" xmlns="http://www.w3.org/2000/svg">
<path fill-rule="evenodd" clip-rule="evenodd" d="M14.3115 11.7972C13.0689 11.7972 12.0615 12.8046 12.0615 14.0472C12.0615 15.2898 13.0689 16.2972 14.3115 16.2972C15.5542 16.2972 16.5615 15.2898 16.5615 14.0472C16.5615 12.8046 15.5542 11.7972 14.3115 11.7972ZM9.81152 14.0472C9.81152 11.5619 11.8262 9.5472 14.3115 9.5472C16.7968 9.5472 18.8115 11.5619 18.8115 14.0472C18.8115 16.5325 16.7968 18.5472 14.3115 18.5472C11.8262 18.5472 9.81152 16.5325 9.81152 14.0472Z" fill="#FEBA02"/>
<path fill-rule="evenodd" clip-rule="evenodd" d="M14.3115 2.7972C14.0132 2.7972 13.727 2.91572 13.516 3.1267C13.3051 3.33768 13.1865 3.62383 13.1865 3.9222V4.11793C13.1842 4.69934 13.0119 5.26739 12.6909 5.75214C12.3699 6.23689 11.9141 6.61719 11.3797 6.84623C11.2846 6.887 11.1845 6.91435 11.0823 6.92771C10.5967 7.09775 10.074 7.13967 9.56515 7.0474C8.97903 6.94113 8.43818 6.6617 8.01235 6.24517L8.00348 6.23649L7.93603 6.16894C7.83155 6.06434 7.70703 5.98092 7.57046 5.92431C7.43388 5.86769 7.28749 5.83855 7.13965 5.83855C6.99181 5.83855 6.84541 5.86769 6.70884 5.92431C6.57227 5.98092 6.44819 6.0639 6.34371 6.1685L6.34283 6.16938C6.23823 6.27387 6.15525 6.39794 6.09863 6.53451C6.04202 6.67109 6.01288 6.81748 6.01288 6.96532C6.01288 7.11316 6.04202 7.25955 6.09863 7.39613C6.15525 7.5327 6.23823 7.65678 6.34283 7.76126L6.41954 7.83797C6.83608 8.2638 7.11545 8.8047 7.22173 9.39082C7.32589 9.96528 7.25904 10.5574 7.02991 11.0938C6.82115 11.6412 6.45562 12.1152 5.9787 12.4563C5.49214 12.8043 4.91213 12.9979 4.31408 13.0119L4.28777 13.0122H4.18652C3.88816 13.0122 3.60201 13.1307 3.39103 13.3417C3.18005 13.5527 3.06152 13.8388 3.06152 14.1372C3.06152 14.4356 3.18005 14.7217 3.39103 14.9327C3.60201 15.1437 3.88816 15.2622 4.18652 15.2622H4.38226C4.96367 15.2645 5.53171 15.4368 6.01646 15.7578C6.49953 16.0777 6.87887 16.5315 7.10816 17.0635C7.34674 17.607 7.41765 18.2094 7.31173 18.7936C7.20545 19.3797 6.92603 19.9205 6.50949 20.3464L6.50081 20.3552L6.43327 20.4227C6.32867 20.5272 6.24525 20.6517 6.18863 20.7883C6.13202 20.9248 6.10288 21.0712 6.10288 21.2191C6.10288 21.3669 6.13202 21.5133 6.18863 21.6499C6.24525 21.7865 6.32823 21.9105 6.43283 22.015L6.43371 22.0159C6.53819 22.1205 6.66227 22.2035 6.79884 22.2601C6.93541 22.3167 7.08181 22.3458 7.22965 22.3458C7.37749 22.3458 7.52388 22.3167 7.66046 22.2601C7.79703 22.2035 7.92111 22.1205 8.02559 22.0159L8.1023 21.9392C8.52813 21.5226 9.06903 21.2433 9.65515 21.137C10.2296 21.0328 10.8217 21.0997 11.3581 21.3288C11.9055 21.5376 12.3795 21.9031 12.7206 22.38C13.0686 22.8666 13.2622 23.4466 13.2762 24.0446L13.2765 24.0709V24.1722C13.2765 24.4706 13.3951 24.7567 13.606 24.9677C13.817 25.1787 14.1032 25.2972 14.4015 25.2972C14.6999 25.2972 14.986 25.1787 15.197 24.9677C15.408 24.7567 15.5265 24.4706 15.5265 24.1722V23.9809L15.5265 23.9765C15.5289 23.395 15.7011 22.827 16.0222 22.3423C16.3421 21.8591 16.7959 21.4798 17.3279 21.2505C17.8714 21.012 18.4738 20.9411 19.0579 21.047C19.644 21.1533 20.1849 21.4327 20.6107 21.8492L20.6196 21.8579L20.687 21.9254C20.7915 22.03 20.916 22.1135 21.0526 22.1701C21.1892 22.2267 21.3356 22.2558 21.4834 22.2558C21.6312 22.2558 21.7776 22.2267 21.9142 22.1701C22.0508 22.1135 22.1749 22.0305 22.2793 21.9259L22.2802 21.925C22.3848 21.8205 22.4678 21.6965 22.5244 21.5599C22.581 21.4233 22.6102 21.2769 22.6102 21.1291C22.6102 20.9812 22.581 20.8348 22.5244 20.6983C22.4678 20.5617 22.3848 20.4376 22.2802 20.3331L22.2035 20.2564C21.787 19.8306 21.5076 19.2897 21.4013 18.7036C21.2954 18.1195 21.3663 17.5171 21.6048 16.9736C21.8341 16.4415 22.2135 15.9878 22.6966 15.6678C23.1813 15.3468 23.7494 15.1745 24.3308 15.1722L24.3353 15.1722L24.4365 15.1722C24.7349 15.1722 25.021 15.0537 25.232 14.8427C25.443 14.6317 25.5615 14.3456 25.5615 14.0472C25.5615 13.7488 25.443 13.4627 25.232 13.2517C25.021 13.0407 24.7349 12.9222 24.4365 12.9222H24.2453L24.2408 12.9222C23.6594 12.9199 23.0913 12.7476 22.6066 12.4266C22.1218 12.1055 21.7415 11.6498 21.5125 11.1154C21.4717 11.0202 21.4444 10.9202 21.431 10.818C21.261 10.3324 21.2191 9.80969 21.3113 9.30082C21.4176 8.7147 21.697 8.17385 22.1136 7.74802L22.1222 7.73915L22.1898 7.6717C22.2944 7.56722 22.3778 7.4427 22.4344 7.30613C22.491 7.16955 22.5202 7.02316 22.5202 6.87532C22.5202 6.72748 22.491 6.58109 22.4344 6.44451C22.3778 6.30794 22.2948 6.18387 22.1902 6.07938L22.1893 6.0785C22.0849 5.9739 21.9608 5.89092 21.8242 5.83431C21.6876 5.77769 21.5412 5.74855 21.3934 5.74855C21.2456 5.74855 21.0992 5.77769 20.9626 5.83431C20.826 5.89092 20.7019 5.9739 20.5975 6.0785L20.5207 6.15521C20.0949 6.57175 19.554 6.85113 18.9679 6.9574C18.3837 7.06332 17.7813 6.99241 17.2378 6.75383C16.7058 6.52455 16.2521 6.1452 15.9322 5.66214C15.6111 5.17739 15.4389 4.60934 15.4365 4.02793L15.4365 4.02345V3.9222C15.4365 3.62383 15.318 3.33768 15.107 3.1267C14.896 2.91572 14.6099 2.7972 14.3115 2.7972ZM22.6365 17.4222L23.6657 17.8764C23.6067 18.0101 23.5892 18.1584 23.6152 18.3021C23.641 18.4443 23.7083 18.5757 23.8086 18.6796L23.8703 18.7413C24.1839 19.0546 24.4331 19.4271 24.6029 19.8366C24.7727 20.2464 24.8602 20.6855 24.8602 21.1291C24.8602 21.5726 24.7727 22.0118 24.6029 22.4215C24.4331 22.8312 24.1841 23.2034 23.8703 23.5169L23.0753 22.7209L23.8712 23.516C23.5578 23.8298 23.1855 24.0787 22.7758 24.2486C22.3661 24.4184 21.9269 24.5058 21.4834 24.5058C21.0399 24.5058 20.6007 24.4184 20.191 24.2486C19.7815 24.0788 19.4094 23.83 19.096 23.5164L19.0339 23.4543C18.93 23.354 18.7987 23.2867 18.6565 23.2609C18.5127 23.2348 18.3644 23.2524 18.2308 23.3114L18.2197 23.3163C18.0886 23.3725 17.9768 23.4657 17.8981 23.5846C17.8196 23.703 17.7774 23.8417 17.7765 23.9838V24.1722C17.7765 25.0673 17.4209 25.9257 16.788 26.5587C16.1551 27.1916 15.2966 27.5472 14.4015 27.5472C13.5064 27.5472 12.648 27.1916 12.015 26.5587C11.3821 25.9257 11.0265 25.0673 11.0265 24.1722V24.0871C11.0212 23.944 10.9739 23.8055 10.8906 23.6889C10.8052 23.5696 10.6859 23.4787 10.5482 23.428C10.526 23.4199 10.504 23.411 10.4823 23.4014C10.3486 23.3424 10.2003 23.3248 10.0566 23.3509C9.91437 23.3767 9.78303 23.444 9.67911 23.5443L9.61746 23.606C9.3041 23.9196 8.9316 24.1688 8.52207 24.3386C8.11235 24.5084 7.67318 24.5958 7.22965 24.5958C6.78612 24.5958 6.34694 24.5084 5.93722 24.3386C5.52789 24.1689 5.15599 23.9203 4.84272 23.6069C4.52892 23.2934 4.27999 22.9212 4.11014 22.5115C3.9403 22.1018 3.85288 21.6626 3.85288 21.2191C3.85288 20.7755 3.9403 20.3364 4.11014 19.9266C4.27999 19.5169 4.52892 19.1447 4.84272 18.8313L4.9044 18.7696C5.00472 18.6657 5.07205 18.5343 5.09783 18.3921C5.1239 18.2484 5.1063 18.1001 5.0473 17.9664L5.04243 17.9554C4.98625 17.8243 4.89303 17.7125 4.77413 17.6338C4.65569 17.5553 4.51699 17.5131 4.37496 17.5122H4.18652C3.29142 17.5122 2.43297 17.1566 1.80004 16.5237C1.1671 15.8907 0.811523 15.0323 0.811523 14.1372C0.811523 13.2421 1.1671 12.3836 1.80004 11.7507C2.43297 11.1178 3.29142 10.7622 4.18652 10.7622H4.27162C4.41471 10.7569 4.55318 10.7096 4.66977 10.6262C4.78912 10.5409 4.88002 10.4216 4.93067 10.2839C4.93885 10.2616 4.94773 10.2396 4.9573 10.218C5.0163 10.0843 5.0339 9.93601 5.00783 9.79224C4.98204 9.65005 4.91471 9.51871 4.81438 9.41479L4.75272 9.35313C4.43893 9.03969 4.18999 8.66746 4.02014 8.25774C3.8503 7.84803 3.76288 7.40885 3.76288 6.96532C3.76288 6.52179 3.8503 6.08262 4.02014 5.6729C4.18991 5.26337 4.43869 4.8913 4.75228 4.57795C5.06563 4.26436 5.4377 4.01558 5.84723 3.84582C6.25694 3.67597 6.69612 3.58855 7.13965 3.58855C7.58318 3.58855 8.02235 3.67597 8.43207 3.84582C8.84179 4.01566 9.21401 4.2646 9.52746 4.57839L9.58912 4.64005C9.69304 4.74038 9.82437 4.80772 9.96657 4.8335C10.1103 4.85957 10.2586 4.84197 10.3923 4.78297C10.4643 4.75118 10.5393 4.72712 10.616 4.71107C10.6944 4.65783 10.7621 4.58958 10.815 4.5098C10.8934 4.39136 10.9356 4.25266 10.9365 4.11063V3.9222C10.9365 3.02709 11.2921 2.16864 11.925 1.53571C12.558 0.902775 13.4164 0.547195 14.3115 0.547195C15.2066 0.547195 16.0651 0.902775 16.698 1.53571C17.3309 2.16864 17.6865 3.02709 17.6865 3.9222V4.02063C17.6874 4.16266 17.7296 4.30137 17.8081 4.4198C17.8868 4.5387 17.9986 4.63198 18.1297 4.68816L18.1408 4.69292C18.2745 4.75191 18.4227 4.76957 18.5665 4.7435C18.7087 4.71772 18.84 4.65039 18.9439 4.55007L19.0056 4.48839C19.319 4.1746 19.6913 3.92566 20.101 3.75582C20.5107 3.58597 20.9499 3.49855 21.3934 3.49855C21.8369 3.49855 22.2761 3.58597 22.6858 3.75582C23.0955 3.92566 23.4678 4.1746 23.7812 4.48839C24.0946 4.80165 24.3432 5.17356 24.5129 5.5829C24.6827 5.99261 24.7702 6.43179 24.7702 6.87532C24.7702 7.31885 24.6827 7.75803 24.5129 8.16774C24.3431 8.57727 24.0944 8.94933 23.7808 9.26269L23.7187 9.32479C23.6183 9.42871 23.551 9.56004 23.5252 9.70224C23.4992 9.84601 23.5167 9.99429 23.5757 10.128C23.6075 10.2 23.6316 10.275 23.6476 10.3516C23.7009 10.4301 23.7691 10.4978 23.8489 10.5506C23.9674 10.6291 24.1061 10.6713 24.2481 10.6722H24.4365C25.3316 10.6722 26.1901 11.0278 26.823 11.6607C27.4559 12.2936 27.8115 13.1521 27.8115 14.0472C27.8115 14.9423 27.4559 15.8007 26.823 16.4337C26.1901 17.0666 25.3316 17.4222 24.4365 17.4222H24.3381C24.1961 17.4231 24.0574 17.4653 23.9389 17.5438C23.82 17.6225 23.7267 17.7343 23.6706 17.8654L22.6365 17.4222Z" fill="#FEBA02"/>
</svg>
