<svg width="75" height="67" viewBox="0 0 75 67" fill="none" xmlns="http://www.w3.org/2000/svg">
<g clip-path="url(#clip0)">
<path d="M73.6928 7.07735V63.174C68.0074 65.3808 61.8972 66.5802 55.5347 66.5802C25.1587 66.5802 0.462392 39.2096 0.462392 5.35309C0.462392 3.6892 0.522088 2.04088 0.639219 0.410634H67.4547C70.647 0.410634 73.6928 3.29996 73.6928 7.07735Z" stroke="#CCD2DC" stroke-width="0.821268"/>
<path fill-rule="evenodd" clip-rule="evenodd" d="M47.7619 18.5449C47.7619 18.0007 47.3208 17.5595 46.7766 17.5595C46.2323 17.5595 45.7912 18.0007 45.7912 18.5449V19.5303H39.8788V18.5449C39.8788 18.0007 39.4376 17.5595 38.8934 17.5595C38.3492 17.5595 37.908 18.0007 37.908 18.5449V19.5303H35.9374C34.3047 19.5303 32.9812 20.8538 32.9812 22.4865V26.428V36.282C32.9812 37.9146 34.3047 39.2381 35.9374 39.2381H49.7328C51.3655 39.2381 52.689 37.9146 52.689 36.282V26.428V22.4865C52.689 20.8538 51.3655 19.5303 49.7328 19.5303H47.7619V18.5449ZM50.7182 25.4427V22.4865C50.7182 21.9423 50.277 21.5011 49.7328 21.5011H47.7619V22.4865C47.7619 23.0307 47.3208 23.4719 46.7766 23.4719C46.2323 23.4719 45.7912 23.0307 45.7912 22.4865V21.5011H39.8788V22.4865C39.8788 23.0307 39.4376 23.4719 38.8934 23.4719C38.3492 23.4719 37.908 23.0307 37.908 22.4865V21.5011H35.9374C35.3932 21.5011 34.952 21.9423 34.952 22.4865V25.4427H50.7182ZM34.952 27.4134H50.7182V36.282C50.7182 36.8262 50.277 37.2673 49.7328 37.2673H35.9374C35.3932 37.2673 34.952 36.8262 34.952 36.282V27.4134Z" fill="#CCD2DC"/>
<rect x="36.2363" y="28.3351" width="2.07855" height="2.07855" rx="1" fill="#CCD2DC"/>
</g>
<defs>
<clipPath id="clip0">
<rect width="74.0517" height="66.9909" fill="white" transform="translate(0.0517578)"/>
</clipPath>
</defs>
</svg>
