<svg width="75" height="67" viewBox="0 0 75 67" fill="none" xmlns="http://www.w3.org/2000/svg">
<g clip-path="url(#clip0)">
<path d="M73.6733 7.07735V63.174C67.9878 65.3808 61.8777 66.5802 55.5152 66.5802C25.1392 66.5802 0.44286 39.2096 0.44286 5.35309C0.44286 3.6892 0.502557 2.04088 0.619688 0.410634H67.4352C70.6274 0.410634 73.6733 3.29996 73.6733 7.07735Z" stroke="#CCD2DC" stroke-width="0.821268"/>
<path d="M43.725 27.2313C44.1952 27.2313 44.5764 27.6125 44.5764 28.0827V29.7857H46.2793C46.7496 29.7857 47.1308 30.1669 47.1308 30.6371C47.1308 31.1074 46.7496 31.4886 46.2793 31.4886H44.5764V33.1915C44.5764 33.6618 44.1952 34.043 43.725 34.043C43.2547 34.043 42.8735 33.6618 42.8735 33.1915V31.4886H41.1706C40.7003 31.4886 40.3191 31.1074 40.3191 30.6371C40.3191 30.1669 40.7003 29.7857 41.1706 29.7857H42.8735V28.0827C42.8735 27.6125 43.2547 27.2313 43.725 27.2313Z" fill="#CCD2DC"/>
<path fill-rule="evenodd" clip-rule="evenodd" d="M35.107 21.1678C35.5861 20.6887 36.2358 20.4196 36.9133 20.4196H41.1706C41.4553 20.4196 41.7211 20.5619 41.879 20.7988L43.3292 22.974H50.5366C51.2141 22.974 51.8638 23.2431 52.3429 23.7221C52.8219 24.2012 53.091 24.8509 53.091 25.5284V34.8944C53.091 35.5719 52.8219 36.2216 52.3429 36.7007C51.8638 37.1797 51.2141 37.4488 50.5366 37.4488H36.9133C36.2358 37.4488 35.5861 37.1797 35.107 36.7007C34.628 36.2216 34.3589 35.5719 34.3589 34.8944V22.974C34.3589 22.2965 34.628 21.6468 35.107 21.1678ZM36.9133 22.1225C36.6874 22.1225 36.4709 22.2122 36.3112 22.3719C36.1515 22.5316 36.0618 22.7482 36.0618 22.974V34.8944C36.0618 35.1203 36.1515 35.3368 36.3112 35.4965C36.4709 35.6562 36.6874 35.7459 36.9133 35.7459H50.5366C50.7625 35.7459 50.979 35.6562 51.1387 35.4965C51.2984 35.3368 51.3881 35.1203 51.3881 34.8944V25.5284C51.3881 25.3025 51.2984 25.086 51.1387 24.9263C50.979 24.7666 50.7625 24.6769 50.5366 24.6769H42.8735C42.5888 24.6769 42.323 24.5346 42.165 24.2977L40.7149 22.1225H36.9133Z" fill="#CCD2DC"/>
</g>
<defs>
<clipPath id="clip0">
<rect width="74.0517" height="66.9909" fill="white" transform="translate(0.0322266)"/>
</clipPath>
</defs>
</svg>
