<svg width="75" height="67" viewBox="0 0 75 67" fill="none" xmlns="http://www.w3.org/2000/svg">
<g clip-path="url(#clip0)">
<path d="M73.641 7.07735V63.174C67.9556 65.3808 61.8455 66.5802 55.483 66.5802C25.1069 66.5802 0.410634 39.2096 0.410634 5.35309C0.410634 3.6892 0.47033 2.04088 0.587461 0.410634H67.403C70.5952 0.410634 73.641 3.29996 73.641 7.07735Z" stroke="#CCD2DC" stroke-width="0.821268"/>
<path fill-rule="evenodd" clip-rule="evenodd" d="M35.3104 21.86C34.7988 21.86 34.3763 22.2825 34.3763 22.7941V34.0035C34.3763 34.5152 34.7988 34.9377 35.3104 34.9377H50.2563C50.7679 34.9377 51.1904 34.5152 51.1904 34.0035V22.7941C51.1904 22.2825 50.7679 21.86 50.2563 21.86H35.3104ZM32.5081 22.7941C32.5081 21.2507 33.767 19.9918 35.3104 19.9918H50.2563C51.7997 19.9918 53.0587 21.2507 53.0587 22.7941V34.0035C53.0587 35.547 51.7997 36.8059 50.2563 36.8059H35.3104C33.767 36.8059 32.5081 35.547 32.5081 34.0035V22.7941Z" fill="#CCD2DC"/>
<path fill-rule="evenodd" clip-rule="evenodd" d="M32.677 22.2584C32.9728 21.8358 33.5553 21.733 33.9779 22.0288L42.7834 28.1927L51.5889 22.0288C52.0116 21.733 52.594 21.8358 52.8899 22.2584C53.1857 22.6811 53.0829 23.2635 52.6603 23.5594L43.3191 30.0982C42.9975 30.3233 42.5694 30.3233 42.2478 30.0982L32.9066 23.5594C32.4839 23.2635 32.3811 22.6811 32.677 22.2584Z" fill="#CCD2DC"/>
</g>
<defs>
<clipPath id="clip0">
<rect width="74.0517" height="66.9909" fill="white"/>
</clipPath>
</defs>
</svg>
