<svg width="24" height="20" viewBox="0 0 24 20" fill="none" xmlns="http://www.w3.org/2000/svg">
<path d="M6.46487 12.8617C6.27053 12.8617 6.07328 12.8352 5.87734 12.7795C5.50384 12.6734 5.28723 12.285 5.3935 11.9121C5.49977 11.5391 5.88892 11.3228 6.26219 11.4289C6.65664 11.5409 7.06844 11.3118 7.18061 10.9181C7.29278 10.5244 7.06333 10.113 6.66911 10.001C5.28639 9.61317 4.03628 8.65383 3.15133 7.30031C2.26141 5.93916 1.79102 4.29834 1.79102 2.5553V2.54986C1.79345 1.86455 2.062 1.22353 2.5472 0.742406C3.0302 0.263437 3.67042 0 4.35072 0C4.35386 0 4.35686 4.6875e-05 4.36 4.6875e-05C5.77159 0.0050625 6.91595 1.15589 6.91098 2.56542C6.90962 2.95233 6.59505 3.26508 6.20791 3.26508C6.20706 3.26508 6.20622 3.26508 6.20538 3.26508C5.81706 3.26372 5.50337 2.94825 5.50473 2.5605C5.50698 1.9252 4.99122 1.40653 4.35503 1.40428C4.04608 1.40222 3.75672 1.52198 3.53805 1.73883C3.31937 1.95567 3.19834 2.24456 3.19722 2.5523V2.5553C3.19722 4.00402 3.59908 5.41655 4.32883 6.53264C5.02755 7.60134 5.99453 8.35322 7.05166 8.64975C8.194 8.97436 8.85752 10.164 8.53314 11.3025C8.26455 12.2452 7.40111 12.8616 6.46487 12.8617V12.8617Z" fill="#FBAC5B"/>
<path d="M17.5354 12.8617C16.599 12.8618 15.7358 12.2453 15.4671 11.3024C15.1427 10.164 15.8062 8.97431 16.9463 8.65036C18.0057 8.35317 18.9727 7.60134 19.6714 6.53264C20.4011 5.4165 20.803 4.00397 20.803 2.5553V2.54986C20.8019 2.24461 20.6809 1.95572 20.4622 1.73883C20.2445 1.52297 19.956 1.40428 19.6494 1.40428C19.648 1.40428 19.6466 1.40428 19.6452 1.40428C19.009 1.40653 18.4933 1.9252 18.4955 2.5605C18.4969 2.94825 18.1832 3.26372 17.7949 3.26508C17.7941 3.26508 17.7932 3.26508 17.7924 3.26508C17.4052 3.26508 17.0906 2.95238 17.0893 2.56542C17.0843 1.15589 18.2287 0.0050625 19.6402 4.6875e-05C19.6433 4.6875e-05 19.6464 0 19.6495 0C20.3299 0 20.97 0.263437 21.4531 0.742406C21.9383 1.22353 22.2068 1.86455 22.2093 2.54738V2.5553C22.2093 4.29834 21.7389 5.93916 20.8489 7.30031C19.964 8.65383 18.7139 9.61317 17.3288 10.0017C16.9369 10.113 16.7074 10.5245 16.8196 10.9181C16.9318 11.3118 17.3438 11.5409 17.738 11.4289C18.1113 11.3228 18.5005 11.5391 18.6067 11.9121C18.713 12.2851 18.4964 12.6735 18.1229 12.7796C17.9271 12.8352 17.7296 12.8617 17.5354 12.8617V12.8617Z" fill="#FD8F32"/>
<path d="M15.5511 19.8123H8.44918C8.06087 19.8123 7.74605 19.498 7.74605 19.1102C7.74605 17.5725 8.57405 16.1709 9.89077 15.4207V12.4847C9.58679 12.3555 9.29546 12.1988 9.02049 12.0162C7.51665 11.0176 6.6189 9.34481 6.6189 7.54148V0.702141C6.6189 0.314391 6.93371 0 7.32202 0H16.6784C17.0667 0 17.3815 0.314344 17.3815 0.702141V7.54148C17.3815 9.34486 16.4837 11.0176 14.9799 12.0162C14.7049 12.1988 14.4136 12.3555 14.1096 12.4847V15.4207C15.4263 16.1709 16.2543 17.5725 16.2543 19.1102C16.2542 19.498 15.9395 19.8123 15.5511 19.8123V19.8123Z" fill="#FDDB8D"/>
<path d="M14.9797 12.0162C16.4835 11.0176 17.3812 9.34486 17.3812 7.54148V0.702141C17.3812 0.314391 17.0664 0 16.6781 0H12V19.8123H15.551C15.9393 19.8123 16.2541 19.4979 16.2541 19.1101C16.2541 17.5725 15.4261 16.1709 14.1094 15.4207V12.4847C14.4134 12.3555 14.7047 12.1988 14.9797 12.0162V12.0162Z" fill="#FBAC5B"/>
<path d="M13.8752 14.5956H10.1252C9.73693 14.5956 9.42212 14.2812 9.42212 13.8934C9.42212 13.5056 9.73693 13.1913 10.1252 13.1913H13.8752C14.2636 13.1913 14.5784 13.5056 14.5784 13.8934C14.5784 14.2812 14.2636 14.5956 13.8752 14.5956Z" fill="#FBAC5B"/>
<path d="M13.875 13.1913H12V14.5955H13.875C14.2633 14.5955 14.5781 14.2812 14.5781 13.8934C14.5781 13.5056 14.2633 13.1913 13.875 13.1913Z" fill="#FD8F32"/>
<path d="M12.0001 9.39126C11.6118 9.39126 11.2969 9.07692 11.2969 8.68912V5.00756H11.0618C10.6735 5.00756 10.3586 4.69322 10.3586 4.30542C10.3586 3.91762 10.6735 3.60328 11.0618 3.60328H12.0001C12.3884 3.60328 12.7032 3.91762 12.7032 4.30542V8.68912C12.7032 9.07692 12.3884 9.39126 12.0001 9.39126V9.39126Z" fill="#FBAC5B"/>
<path d="M12 3.60332V9.39126C12.3883 9.39126 12.7031 9.07692 12.7031 8.68912V4.30547C12.7031 3.91767 12.3883 3.60332 12 3.60332Z" fill="#FD8F32"/>
</svg>
