<svg width="24" height="24" viewBox="0 0 24 24" fill="none" xmlns="http://www.w3.org/2000/svg">
<path fill-rule="evenodd" clip-rule="evenodd" d="M2 2.99998C2 2.4477 2.44772 1.99998 3 1.99998H10C10.5523 1.99998 11 2.4477 11 2.99998V9.99998C11 10.5523 10.5523 11 10 11H3C2.44772 11 2 10.5523 2 9.99998V2.99998ZM4 3.99998V8.99998H9V3.99998H4Z" fill="#F76706"/>
<path fill-rule="evenodd" clip-rule="evenodd" d="M13 2.99998C13 2.4477 13.4477 1.99998 14 1.99998H21C21.5523 1.99998 22 2.4477 22 2.99998V9.99998C22 10.5523 21.5523 11 21 11H14C13.4477 11 13 10.5523 13 9.99998V2.99998ZM15 3.99998V8.99998H20V3.99998H15Z" fill="#F76706"/>
<path fill-rule="evenodd" clip-rule="evenodd" d="M13 14C13 13.4477 13.4477 13 14 13H21C21.5523 13 22 13.4477 22 14V21C22 21.5523 21.5523 22 21 22H14C13.4477 22 13 21.5523 13 21V14ZM15 15V20H20V15H15Z" fill="#F76706"/>
<path fill-rule="evenodd" clip-rule="evenodd" d="M2 14C2 13.4477 2.44772 13 3 13H10C10.5523 13 11 13.4477 11 14V21C11 21.5523 10.5523 22 10 22H3C2.44772 22 2 21.5523 2 21V14ZM4 15V20H9V15H4Z" fill="#F76706"/>
</svg>
