<svg width="25" height="28" viewBox="0 0 25 28" fill="none" xmlns="http://www.w3.org/2000/svg">
<path fill-rule="evenodd" clip-rule="evenodd" d="M5.76268 7.03017C6.24197 7.50931 6.2421 8.28627 5.76296 8.76557C4.39036 10.1386 3.45572 11.8878 3.07719 13.792C2.69866 15.6962 2.89326 17.6699 3.63637 19.4635C4.37948 21.2571 5.63773 22.7901 7.25204 23.8687C8.86635 24.9472 10.7642 25.5229 12.7057 25.5229C14.6471 25.5229 16.545 24.9472 18.1593 23.8687C19.7736 22.7901 21.0319 21.2571 21.775 19.4635C22.5181 17.6699 22.7127 15.6962 22.3342 13.792C21.9556 11.8878 21.021 10.1386 19.6484 8.76557C19.1692 8.28627 19.1694 7.50931 19.6487 7.03017C20.128 6.55103 20.9049 6.55116 21.3841 7.03046C23.0998 8.74676 24.2681 10.9333 24.7413 13.3135C25.2144 15.6938 24.9712 18.1609 24.0423 20.4029C23.1134 22.6449 21.5406 24.5612 19.5227 25.9093C17.5048 27.2575 15.1325 27.9771 12.7057 27.9771C10.2788 27.9771 7.90652 27.2575 5.88863 25.9093C3.87075 24.5612 2.29793 22.6449 1.36904 20.4029C0.440153 18.1609 0.19691 15.6938 0.670068 13.3135C1.14323 10.9333 2.31154 8.74676 4.02728 7.03046C4.50642 6.55116 5.28338 6.55103 5.76268 7.03017Z" fill="#FB5449"/>
<path fill-rule="evenodd" clip-rule="evenodd" d="M12.7118 0.977112C13.3895 0.977112 13.9389 1.52651 13.9389 2.20422V14.4753C13.9389 15.153 13.3895 15.7024 12.7118 15.7024C12.0341 15.7024 11.4847 15.153 11.4847 14.4753V2.20422C11.4847 1.52651 12.0341 0.977112 12.7118 0.977112Z" fill="#FB5449"/>
</svg>
