<svg width="92" height="83" viewBox="0 0 92 83" fill="none" xmlns="http://www.w3.org/2000/svg">
<g clip-path="url(#clip0)">
<path d="M91.0884 5.39586V77.7303C84.0193 80.5187 76.4085 82.0365 68.4786 82.0365C31.1675 82.0365 0.920898 48.4346 0.920898 6.98454C0.920898 4.78854 1.0058 2.61457 1.17214 0.466461H86.5881C89.0526 0.466461 91.0544 2.66698 91.0884 5.39586Z" fill="#FFF2EF"/>
<path fill-rule="evenodd" clip-rule="evenodd" d="M45.7627 28.0302C46.242 28.5093 46.2421 29.2863 45.763 29.7656C44.3904 31.1386 43.4557 32.8878 43.0772 34.792C42.6987 36.6962 42.8933 38.6699 43.6364 40.4635C44.3795 42.2571 45.6377 43.7901 47.252 44.8687C48.8663 45.9472 50.7642 46.5229 52.7057 46.5229C54.6471 46.5229 56.545 45.9472 58.1593 44.8687C59.7736 43.7901 61.0319 42.2571 61.775 40.4635C62.5181 38.6699 62.7127 36.6962 62.3342 34.792C61.9556 32.8878 61.021 31.1386 59.6484 29.7656C59.1692 29.2863 59.1694 28.5093 59.6487 28.0302C60.128 27.551 60.9049 27.5512 61.3841 28.0305C63.0998 29.7468 64.2681 31.9333 64.7413 34.3135C65.2144 36.6938 64.9712 39.1609 64.0423 41.4029C63.1134 43.6449 61.5406 45.5612 59.5227 46.9093C57.5048 48.2575 55.1325 48.9771 52.7057 48.9771C50.2788 48.9771 47.9065 48.2575 45.8886 46.9093C43.8707 45.5612 42.2979 43.6449 41.369 41.4029C40.4402 39.1609 40.1969 36.6938 40.6701 34.3135C41.1432 31.9333 42.3115 29.7468 44.0273 28.0305C44.5064 27.5512 45.2834 27.551 45.7627 28.0302Z" fill="#FB5449"/>
<path fill-rule="evenodd" clip-rule="evenodd" d="M52.7118 21.9771C53.3895 21.9771 53.9389 22.5265 53.9389 23.2042V35.4753C53.9389 36.153 53.3895 36.7024 52.7118 36.7024C52.0341 36.7024 51.4847 36.153 51.4847 35.4753V23.2042C51.4847 22.5265 52.0341 21.9771 52.7118 21.9771Z" fill="#FB5449"/>
</g>
<defs>
<clipPath id="clip0">
<rect width="90.1675" height="81.5701" fill="white" transform="translate(0.920898 0.466461)"/>
</clipPath>
</defs>
</svg>
