<svg width="91" height="83" viewBox="0 0 91 83" fill="none" xmlns="http://www.w3.org/2000/svg">
<g clip-path="url(#clip0)">
<path d="M90.6944 5.39586V77.7303C83.6253 80.5187 76.0145 82.0365 68.0846 82.0365C30.7735 82.0365 0.526855 48.4346 0.526855 6.98454C0.526855 4.78854 0.611752 2.61457 0.778098 0.466461H86.1941C88.6586 0.466461 90.6604 2.66698 90.6944 5.39586Z" fill="#E7FCE4"/>
<path fill-rule="evenodd" clip-rule="evenodd" d="M40.1615 32.7771C40.9071 32.7771 41.5115 32.1727 41.5115 31.4271V26.0271C41.5115 25.6691 41.6538 25.3257 41.9069 25.0725C42.1601 24.8193 42.5035 24.6771 42.8615 24.6771H61.7615C62.1196 24.6771 62.4629 24.8193 62.7161 25.0725C62.9693 25.3257 63.1115 25.6691 63.1115 26.0271V31.4271C63.1115 32.1727 63.7159 32.7771 64.4615 32.7771C65.2071 32.7771 65.8115 32.1727 65.8115 31.4271V26.0271C65.8115 24.953 65.3848 23.9228 64.6253 23.1633C63.8658 22.4038 62.8357 21.9771 61.7615 21.9771H42.8615C41.7874 21.9771 40.7573 22.4038 39.9977 23.1633C39.2382 23.9228 38.8115 24.953 38.8115 26.0271V31.4271C38.8115 32.1727 39.4159 32.7771 40.1615 32.7771Z" fill="#6ACF67"/>
<path fill-rule="evenodd" clip-rule="evenodd" d="M44.6069 39.1317C45.1341 39.6589 45.9889 39.6589 46.5161 39.1317L52.3115 33.3363L58.1069 39.1317C58.6341 39.6589 59.4889 39.6589 60.0161 39.1317C60.5433 38.6045 60.5433 37.7497 60.0161 37.2225L53.2661 30.4725C52.7389 29.9453 51.8841 29.9453 51.3569 30.4725L44.6069 37.2225C44.0797 37.7497 44.0797 38.6045 44.6069 39.1317Z" fill="#6ACF67"/>
<path fill-rule="evenodd" clip-rule="evenodd" d="M52.3115 48.9771C53.0571 48.9771 53.6615 48.3727 53.6615 47.6271V31.4271C53.6615 30.6815 53.0571 30.0771 52.3115 30.0771C51.5659 30.0771 50.9615 30.6815 50.9615 31.4271V47.6271C50.9615 48.3727 51.5659 48.9771 52.3115 48.9771Z" fill="#6ACF67"/>
</g>
<defs>
<clipPath id="clip0">
<rect width="90.1675" height="81.5701" fill="white" transform="translate(0.526855 0.466461)"/>
</clipPath>
</defs>
</svg>
