<svg width="28" height="28" viewBox="0 0 28 28" fill="none" xmlns="http://www.w3.org/2000/svg">
<path fill-rule="evenodd" clip-rule="evenodd" d="M2.16152 11.7771C2.90711 11.7771 3.51152 11.1727 3.51152 10.4271V5.0271C3.51152 4.66905 3.65376 4.32568 3.90693 4.0725C4.1601 3.81933 4.50348 3.6771 4.86152 3.6771H23.7615C24.1196 3.6771 24.4629 3.81933 24.7161 4.0725C24.9693 4.32568 25.1115 4.66905 25.1115 5.0271V10.4271C25.1115 11.1727 25.7159 11.7771 26.4615 11.7771C27.2071 11.7771 27.8115 11.1727 27.8115 10.4271V5.0271C27.8115 3.95297 27.3848 2.92284 26.6253 2.16332C25.8658 1.40379 24.8357 0.977096 23.7615 0.977096H4.86152C3.7874 0.977096 2.75726 1.40379 1.99774 2.16332C1.23822 2.92284 0.811523 3.95297 0.811523 5.0271V10.4271C0.811523 11.1727 1.41594 11.7771 2.16152 11.7771Z" fill="#6ACF67"/>
<path fill-rule="evenodd" clip-rule="evenodd" d="M6.60693 18.1317C7.13414 18.6589 7.98891 18.6589 8.51612 18.1317L14.3115 12.3363L20.1069 18.1317C20.6341 18.6589 21.4889 18.6589 22.0161 18.1317C22.5433 17.6045 22.5433 16.7497 22.0161 16.2225L15.2661 9.4725C14.7389 8.94529 13.8841 8.94529 13.3569 9.4725L6.60693 16.2225C6.07972 16.7497 6.07972 17.6045 6.60693 18.1317Z" fill="#6ACF67"/>
<path fill-rule="evenodd" clip-rule="evenodd" d="M14.3115 27.9771C15.0571 27.9771 15.6615 27.3727 15.6615 26.6271V10.4271C15.6615 9.68151 15.0571 9.0771 14.3115 9.0771C13.5659 9.0771 12.9615 9.68151 12.9615 10.4271V26.6271C12.9615 27.3727 13.5659 27.9771 14.3115 27.9771Z" fill="#6ACF67"/>
</svg>
