<svg width="75" height="67" viewBox="0 0 75 67" fill="none" xmlns="http://www.w3.org/2000/svg">
<g clip-path="url(#clip0)">
<path d="M74.5888 7.07735V63.174C68.9034 65.3808 62.7932 66.5802 56.4307 66.5802C26.0547 66.5802 1.35839 39.2096 1.35839 5.35309C1.35839 3.6892 1.41808 2.04088 1.53522 0.410634H68.3507C71.543 0.410634 74.5888 3.29996 74.5888 7.07735Z" stroke="#CCD2DC" stroke-width="0.821268"/>
<path fill-rule="evenodd" clip-rule="evenodd" d="M48.6582 18.5449C48.6582 18.0007 48.217 17.5595 47.6728 17.5595C47.1286 17.5595 46.6874 18.0007 46.6874 18.5449V19.5303H40.775V18.5449C40.775 18.0007 40.3339 17.5595 39.7896 17.5595C39.2454 17.5595 38.8043 18.0007 38.8043 18.5449V19.5303H36.8336C35.201 19.5303 33.8774 20.8538 33.8774 22.4865V26.428V36.282C33.8774 37.9146 35.201 39.2381 36.8336 39.2381H50.6291C52.2617 39.2381 53.5852 37.9146 53.5852 36.282V26.428V22.4865C53.5852 20.8538 52.2617 19.5303 50.6291 19.5303H48.6582V18.5449ZM51.6145 25.4427V22.4865C51.6145 21.9423 51.1733 21.5011 50.6291 21.5011H48.6582V22.4865C48.6582 23.0307 48.217 23.4719 47.6728 23.4719C47.1286 23.4719 46.6874 23.0307 46.6874 22.4865V21.5011H40.775V22.4865C40.775 23.0307 40.3339 23.4719 39.7896 23.4719C39.2454 23.4719 38.8043 23.0307 38.8043 22.4865V21.5011H36.8336C36.2894 21.5011 35.8482 21.9423 35.8482 22.4865V25.4427H51.6145ZM35.8482 27.4134H51.6145V36.282C51.6145 36.8262 51.1733 37.2673 50.6291 37.2673H36.8336C36.2894 37.2673 35.8482 36.8262 35.8482 36.282V27.4134Z" fill="#CCD2DC"/>
<rect x="37.1328" y="28.3351" width="2.07855" height="2.07855" rx="1" fill="#CCD2DC"/>
<path fill-rule="evenodd" clip-rule="evenodd" d="M48.6582 18.5449C48.6582 18.0007 48.217 17.5595 47.6728 17.5595C47.1286 17.5595 46.6874 18.0007 46.6874 18.5449V19.5303H40.775V18.5449C40.775 18.0007 40.3339 17.5595 39.7896 17.5595C39.2454 17.5595 38.8043 18.0007 38.8043 18.5449V19.5303H36.8336C35.201 19.5303 33.8774 20.8538 33.8774 22.4865V26.428V36.282C33.8774 37.9146 35.201 39.2381 36.8336 39.2381H50.6291C52.2617 39.2381 53.5852 37.9146 53.5852 36.282V26.428V22.4865C53.5852 20.8538 52.2617 19.5303 50.6291 19.5303H48.6582V18.5449ZM51.6145 25.4427V22.4865C51.6145 21.9423 51.1733 21.5011 50.6291 21.5011H48.6582V22.4865C48.6582 23.0307 48.217 23.4719 47.6728 23.4719C47.1286 23.4719 46.6874 23.0307 46.6874 22.4865V21.5011H40.775V22.4865C40.775 23.0307 40.3339 23.4719 39.7896 23.4719C39.2454 23.4719 38.8043 23.0307 38.8043 22.4865V21.5011H36.8336C36.2894 21.5011 35.8482 21.9423 35.8482 22.4865V25.4427H51.6145ZM35.8482 27.4134H51.6145V36.282C51.6145 36.8262 51.1733 37.2673 50.6291 37.2673H36.8336C36.2894 37.2673 35.8482 36.8262 35.8482 36.282V27.4134Z" fill="#CCD2DC"/>
<rect x="37.1328" y="28.3351" width="2.07855" height="2.07855" rx="1" fill="#CCD2DC"/>
<rect x="39.9131" y="28.3351" width="2.07855" height="2.07855" rx="1" fill="#CCD2DC"/>
<rect x="42.6929" y="28.3351" width="2.07855" height="2.07855" rx="1" fill="#CCD2DC"/>
<rect x="45.4722" y="28.3351" width="2.07855" height="2.07855" rx="1" fill="#CCD2DC"/>
<rect x="48.2524" y="28.3351" width="2.07855" height="2.07855" rx="1" fill="#CCD2DC"/>
<rect x="37.1328" y="31.2971" width="2.07855" height="2.07855" rx="1" fill="#CCD2DC"/>
<rect x="39.9131" y="31.2971" width="2.07855" height="2.07855" rx="1" fill="#CCD2DC"/>
<rect x="42.6929" y="31.2971" width="2.07855" height="2.07855" rx="1" fill="#CCD2DC"/>
<rect x="45.4722" y="31.2971" width="2.07855" height="2.07855" rx="1" fill="#CCD2DC"/>
<rect x="48.2524" y="31.2971" width="2.07855" height="2.07855" rx="1" fill="#CCD2DC"/>
<rect x="37.1328" y="34.2591" width="2.07855" height="2.07855" rx="1" fill="#CCD2DC"/>
<rect x="39.9131" y="34.2591" width="2.07855" height="2.07855" rx="1" fill="#CCD2DC"/>
<rect x="42.6929" y="34.2591" width="2.07855" height="2.07855" rx="1" fill="#CCD2DC"/>
<rect x="45.4722" y="34.2591" width="2.07855" height="2.07855" rx="1" fill="#CCD2DC"/>
<rect x="48.2524" y="34.2591" width="2.07855" height="2.07855" rx="1" fill="#CCD2DC"/>
</g>
<defs>
<clipPath id="clip0">
<rect width="74.0517" height="66.9909" fill="white" transform="translate(0.947754)"/>
</clipPath>
</defs>
</svg>
