<svg width="91" height="83" viewBox="0 0 91 83" fill="none" xmlns="http://www.w3.org/2000/svg">
<g clip-path="url(#clip0)">
<path d="M90.2998 5.39586V77.7303C83.2307 80.5187 75.6199 82.0365 67.6901 82.0365C30.379 82.0365 0.132324 48.4346 0.132324 6.98454C0.132324 4.78854 0.217221 2.61457 0.383567 0.466461H85.7996C88.264 0.466461 90.2658 2.66698 90.2998 5.39586Z" fill="#FFF2EF"/>
<path fill-rule="evenodd" clip-rule="evenodd" d="M39.767 38.1771C40.5126 38.1771 41.117 38.7815 41.117 39.5271V44.9271C41.117 45.2851 41.2592 45.6285 41.5124 45.8817C41.7656 46.1349 42.109 46.2771 42.467 46.2771H61.367C61.725 46.2771 62.0684 46.1349 62.3216 45.8817C62.5748 45.6285 62.717 45.2851 62.717 44.9271V39.5271C62.717 38.7815 63.3214 38.1771 64.067 38.1771C64.8126 38.1771 65.417 38.7815 65.417 39.5271V44.9271C65.417 46.0012 64.9903 47.0314 64.2308 47.7909C63.4713 48.5504 62.4411 48.9771 61.367 48.9771H42.467C41.3929 48.9771 40.3627 48.5504 39.6032 47.7909C38.8437 47.0314 38.417 46.0012 38.417 44.9271V39.5271C38.417 38.7815 39.0214 38.1771 39.767 38.1771Z" fill="#FB5449"/>
<path fill-rule="evenodd" clip-rule="evenodd" d="M44.2124 31.8225C44.7396 31.2953 45.5944 31.2953 46.1216 31.8225L51.917 37.6179L57.7124 31.8225C58.2396 31.2953 59.0944 31.2953 59.6216 31.8225C60.1488 32.3497 60.1488 33.2045 59.6216 33.7317L52.8716 40.4817C52.3444 41.0089 51.4896 41.0089 50.9624 40.4817L44.2124 33.7317C43.6852 33.2045 43.6852 32.3497 44.2124 31.8225Z" fill="#FB5449"/>
<path fill-rule="evenodd" clip-rule="evenodd" d="M51.917 21.9771C52.6626 21.9771 53.267 22.5815 53.267 23.3271V39.5271C53.267 40.2727 52.6626 40.8771 51.917 40.8771C51.1714 40.8771 50.567 40.2727 50.567 39.5271V23.3271C50.567 22.5815 51.1714 21.9771 51.917 21.9771Z" fill="#FB5449"/>
</g>
<defs>
<clipPath id="clip0">
<rect width="90.1675" height="81.5701" fill="white" transform="translate(0.132324 0.466461)"/>
</clipPath>
</defs>
</svg>
