<svg width="28" height="28" viewBox="0 0 28 28" fill="none" xmlns="http://www.w3.org/2000/svg">
<path fill-rule="evenodd" clip-rule="evenodd" d="M1.76699 17.1771C2.51258 17.1771 3.11699 17.7815 3.11699 18.5271V23.9271C3.11699 24.2851 3.25922 24.6285 3.5124 24.8817C3.76557 25.1349 4.10895 25.2771 4.46699 25.2771H23.367C23.725 25.2771 24.0684 25.1349 24.3216 24.8817C24.5748 24.6285 24.717 24.2851 24.717 23.9271V18.5271C24.717 17.7815 25.3214 17.1771 26.067 17.1771C26.8126 17.1771 27.417 17.7815 27.417 18.5271V23.9271C27.417 25.0012 26.9903 26.0314 26.2308 26.7909C25.4713 27.5504 24.4411 27.9771 23.367 27.9771H4.46699C3.39286 27.9771 2.36273 27.5504 1.60321 26.7909C0.843687 26.0314 0.416992 25.0012 0.416992 23.9271V18.5271C0.416992 17.7815 1.02141 17.1771 1.76699 17.1771Z" fill="#FB5449"/>
<path fill-rule="evenodd" clip-rule="evenodd" d="M6.2124 10.8225C6.73961 10.2953 7.59438 10.2953 8.12159 10.8225L13.917 16.6179L19.7124 10.8225C20.2396 10.2953 21.0944 10.2953 21.6216 10.8225C22.1488 11.3497 22.1488 12.2045 21.6216 12.7317L14.8716 19.4817C14.3444 20.0089 13.4896 20.0089 12.9624 19.4817L6.2124 12.7317C5.68519 12.2045 5.68519 11.3497 6.2124 10.8225Z" fill="#FB5449"/>
<path fill-rule="evenodd" clip-rule="evenodd" d="M13.917 0.977097C14.6626 0.977097 15.267 1.58151 15.267 2.3271V18.5271C15.267 19.2727 14.6626 19.8771 13.917 19.8771C13.1714 19.8771 12.567 19.2727 12.567 18.5271V2.3271C12.567 1.58151 13.1714 0.977097 13.917 0.977097Z" fill="#FB5449"/>
</svg>
