<svg width="91" height="82" viewBox="0 0 91 82" fill="none" xmlns="http://www.w3.org/2000/svg">
<g clip-path="url(#clip0)">
<path d="M90.2998 4.96594V77.3004C83.2307 80.0888 75.6199 81.6066 67.6901 81.6066C30.379 81.6066 0.132324 48.0047 0.132324 6.55463C0.132324 4.35863 0.217221 2.18466 0.383567 0.0365448H85.7996C88.264 0.0365448 90.2658 2.23707 90.2998 4.96594Z" fill="#F4E7FF"/>
<path d="M43.5178 42.0788L51.2292 34.3674L52.5937 35.7309L44.8813 43.4423L43.5178 42.0788Z" fill="#9655C9"/>
<path d="M52.883 48.5472C52.7608 48.5475 52.6397 48.5246 52.5262 48.4797C52.3682 48.4167 52.2297 48.3131 52.1247 48.1793C52.0197 48.0455 51.9519 47.8863 51.9283 47.7179L50.964 40.9679L52.8926 40.6979L53.6158 45.7797L56.7401 43.2629V36.0115C56.7394 35.8846 56.7637 35.7588 56.8117 35.6413C56.8597 35.5238 56.9304 35.417 57.0197 35.3269L60.9444 31.4022C61.753 30.599 62.3944 29.6434 62.8314 28.5908C63.2684 27.5381 63.4922 26.4092 63.4901 25.2694V23.4758H61.6965C60.5567 23.4737 59.4278 23.6975 58.3751 24.1345C57.3225 24.5715 56.3669 25.2128 55.5637 26.0215L51.639 29.9462C51.5489 30.0355 51.4421 30.1062 51.3246 30.1542C51.2071 30.2022 51.0813 30.2265 50.9544 30.2258H43.703L41.1862 33.3694L46.268 34.0926L45.998 36.0212L39.248 35.0569C39.0796 35.0332 38.9204 34.9655 38.7866 34.8605C38.6528 34.7555 38.5492 34.617 38.4862 34.459C38.4224 34.2999 38.4022 34.1267 38.4277 33.9572C38.4531 33.7878 38.5232 33.6281 38.6308 33.4947L42.488 28.6733C42.5768 28.5579 42.6906 28.4641 42.8209 28.399C42.9512 28.3338 43.0945 28.2991 43.2401 28.2972H50.559L54.1944 24.6522C55.1771 23.664 56.3463 22.8806 57.6341 22.3476C58.922 21.8146 60.3028 21.5426 61.6965 21.5473H63.4901C64.0016 21.5473 64.4921 21.7504 64.8538 22.1121C65.2155 22.4738 65.4186 22.9643 65.4186 23.4758V25.2694C65.4233 26.6631 65.1513 28.0439 64.6183 29.3318C64.0853 30.6196 63.3019 31.7887 62.3136 32.7715L58.6687 36.4069V43.7258C58.668 43.8706 58.6347 44.0134 58.5713 44.1437C58.5078 44.2739 58.4159 44.3881 58.3022 44.4779L53.4808 48.3351C53.3112 48.4712 53.1005 48.5459 52.883 48.5472Z" fill="#9655C9"/>
<path fill-rule="evenodd" clip-rule="evenodd" d="M57.5675 28.1155C56.8959 28.1155 56.3515 28.6599 56.3515 29.3315C56.3515 30.0031 56.8959 30.5475 57.5675 30.5475C58.2391 30.5475 58.7835 30.0031 58.7835 29.3315C58.7835 28.6599 58.2391 28.1155 57.5675 28.1155ZM55.1355 29.3315C55.1355 27.9883 56.2244 26.8995 57.5675 26.8995C58.9107 26.8995 59.9995 27.9883 59.9995 29.3315C59.9995 30.6747 58.9107 31.7635 57.5675 31.7635C56.2244 31.7635 55.1355 30.6747 55.1355 29.3315Z" fill="#9655C9"/>
</g>
<defs>
<clipPath id="clip0">
<rect width="90.1675" height="81.5701" fill="white" transform="translate(0.132324 0.0365448)"/>
</clipPath>
</defs>
</svg>
