<svg width="28" height="28" viewBox="0 0 28 28" fill="none" xmlns="http://www.w3.org/2000/svg">
<path d="M5.51783 21.0788L13.2292 13.3674L14.5937 14.7309L6.88133 22.4423L5.51783 21.0788Z" fill="#9655C9"/>
<path d="M14.883 27.5472C14.7608 27.5475 14.6397 27.5246 14.5262 27.4797C14.3682 27.4167 14.2297 27.3131 14.1247 27.1793C14.0197 27.0455 13.9519 26.8863 13.9283 26.7179L12.964 19.9679L14.8926 19.6979L15.6158 24.7797L18.7401 22.2629V15.0115C18.7394 14.8846 18.7637 14.7588 18.8117 14.6413C18.8597 14.5238 18.9304 14.417 19.0197 14.3269L22.9444 10.4022C23.753 9.59903 24.3944 8.64344 24.8314 7.59075C25.2684 6.53806 25.4922 5.40917 25.4901 4.26939V2.47582H23.6965C22.5567 2.47366 21.4278 2.69753 20.3751 3.1345C19.3225 3.57147 18.3669 4.21285 17.5637 5.02153L13.639 8.94616C13.5489 9.03554 13.4421 9.10624 13.3246 9.15423C13.2071 9.20222 13.0813 9.22654 12.9544 9.22581H5.70298L3.1862 12.3694L8.26797 13.0926L7.99797 15.0212L1.24799 14.0569C1.07957 14.0332 0.920391 13.9655 0.786605 13.8605C0.652818 13.7555 0.54918 13.617 0.486203 13.459C0.422445 13.2999 0.402238 13.1267 0.427661 12.9572C0.453084 12.7878 0.523219 12.6281 0.630845 12.4947L4.48798 7.67331C4.57681 7.55789 4.69063 7.4641 4.8209 7.39897C4.95116 7.33383 5.09449 7.29905 5.24012 7.29724H12.559L16.1944 3.65225C17.1771 2.66396 18.3463 1.8806 19.6341 1.3476C20.922 0.8146 22.3028 0.54256 23.6965 0.547255H25.4901C26.0016 0.547255 26.4921 0.750443 26.8538 1.11212C27.2155 1.4738 27.4186 1.96433 27.4186 2.47582V4.26939C27.4233 5.66313 27.1513 7.04394 26.6183 8.33175C26.0853 9.61956 25.3019 10.7887 24.3136 11.7715L20.6687 15.4069V22.7258C20.668 22.8706 20.6347 23.0134 20.5713 23.1437C20.5078 23.2739 20.4159 23.3881 20.3022 23.4779L15.4808 27.3351C15.3112 27.4712 15.1005 27.5459 14.883 27.5472Z" fill="#9655C9"/>
<path fill-rule="evenodd" clip-rule="evenodd" d="M19.5675 7.11549C18.8959 7.11549 18.3515 7.65992 18.3515 8.3315C18.3515 9.00309 18.8959 9.54751 19.5675 9.54751C20.2391 9.54751 20.7835 9.00309 20.7835 8.3315C20.7835 7.65992 20.2391 7.11549 19.5675 7.11549ZM17.1355 8.3315C17.1355 6.98834 18.2244 5.89948 19.5675 5.89948C20.9107 5.89948 21.9995 6.98834 21.9995 8.3315C21.9995 9.67467 20.9107 10.7635 19.5675 10.7635C18.2244 10.7635 17.1355 9.67467 17.1355 8.3315Z" fill="#9655C9"/>
</svg>
