<svg width="16" height="16" viewBox="0 0 16 16" fill="none" xmlns="http://www.w3.org/2000/svg">
<g clip-path="url(#clip0)">
<path fill-rule="evenodd" clip-rule="evenodd" d="M9.03663 6.77863C9.34298 6.98287 9.42576 7.39678 9.22153 7.70313L7.24584 10.6667H10.0002C10.246 10.6667 10.4719 10.802 10.5879 11.0188C10.704 11.2355 10.6912 11.4986 10.5549 11.7031L7.8882 15.7031C7.68396 16.0095 7.27005 16.0923 6.9637 15.888C6.65734 15.6838 6.57456 15.2699 6.7788 14.9635L8.75448 12H6.00016C5.7543 12 5.52839 11.8647 5.41238 11.6479C5.29637 11.4311 5.30908 11.1681 5.44546 10.9635L8.11213 6.96353C8.31636 6.65718 8.73028 6.5744 9.03663 6.77863Z" fill="#909398"/>
<path d="M11.3311 3.2481C10.6497 1.92214 9.48884 0.883002 8.0775 0.359598C7.79468 0.254983 7.5033 0.171444 7.20565 0.110176C6.93603 0.0546788 6.34567 0.0180018 5.59259 0C2.46464 0.205156 -0.00878906 2.80721 -0.00878906 5.98697C-0.00878906 8.27351 1.27027 10.2625 3.15192 11.2758C3.47132 11.4478 3.85699 11.2866 3.99988 10.9532C4.14772 10.6082 3.97834 10.2131 3.65322 10.0255C3.60834 9.99965 3.56389 9.973 3.51987 9.9456C2.73782 9.45876 2.09625 8.85446 1.72945 8.10742C1.35808 7.35108 1.2597 6.52304 1.3513 5.62038C1.43987 4.74756 1.73613 3.85718 2.26785 3.17021C2.82536 2.44991 3.58823 1.90214 4.37585 1.61056C5.19452 1.30749 6.08179 1.24013 6.93684 1.41613C7.79188 1.59213 8.58042 2.00444 9.21284 2.6062C9.84527 3.20796 10.2962 3.97505 10.5145 4.8203C10.5905 5.11465 10.856 5.3203 11.16 5.3203H12C12.7072 5.3203 13.3855 5.60125 13.8856 6.10135C14.3857 6.60145 14.6666 7.27973 14.6666 7.98697C14.6666 8.69421 14.3857 9.37249 13.8856 9.87259C13.5442 10.214 13.1197 10.4533 12.6597 10.5707C12.303 10.6618 12 10.9521 12 11.3203C12 11.6885 12.3005 11.9926 12.6636 11.9316C13.4783 11.7945 14.2365 11.4073 14.8284 10.8154C15.5785 10.0652 16 9.04784 16 7.98697C16 6.9261 15.5785 5.90869 14.8284 5.15854C14.0782 4.4084 13.0608 3.98697 12 3.98697H11.6528C11.5632 3.73331 11.4567 3.48649 11.3344 3.2481H11.3311Z" fill="#909398"/>
</g>
<defs>
<clipPath id="clip0">
<rect width="16" height="16" fill="white"/>
</clipPath>
</defs>
</svg>
