<svg width="50" height="40" viewBox="0 0 50 40" fill="none" xmlns="http://www.w3.org/2000/svg">
<path fill-rule="evenodd" clip-rule="evenodd" d="M26 9C26 8.44772 25.5523 8 25 8C24.4477 8 24 8.44772 24 9V12H22.5C21.3065 12 20.1619 12.4741 19.318 13.318C18.4741 14.1619 18 15.3065 18 16.5C18 17.6935 18.4741 18.8381 19.318 19.682C20.1619 20.5259 21.3065 21 22.5 21H24V26H19C18.4477 26 18 26.4477 18 27C18 27.5523 18.4477 28 19 28H24V31C24 31.5523 24.4477 32 25 32C25.5523 32 26 31.5523 26 31V28H27.5C28.6935 28 29.8381 27.5259 30.682 26.682C31.5259 25.8381 32 24.6935 32 23.5C32 22.3065 31.5259 21.1619 30.682 20.318C29.8381 19.4741 28.6935 19 27.5 19H26V14H30C30.5523 14 31 13.5523 31 13C31 12.4477 30.5523 12 30 12H26V9ZM24 14H22.5C21.837 14 21.2011 14.2634 20.7322 14.7322C20.2634 15.2011 20 15.837 20 16.5C20 17.163 20.2634 17.7989 20.7322 18.2678C21.2011 18.7366 21.837 19 22.5 19H24V14ZM26 21V26H27.5C28.163 26 28.7989 25.7366 29.2678 25.2678C29.7366 24.7989 30 24.163 30 23.5C30 22.837 29.7366 22.2011 29.2678 21.7322C28.7989 21.2634 28.163 21 27.5 21H26Z" fill="#BDC5D2" fill-opacity="0.21"/>
</svg>
