<svg width="50" height="40" viewBox="0 0 50 40" fill="none" xmlns="http://www.w3.org/2000/svg">
<path fill-rule="evenodd" clip-rule="evenodd" d="M25 8C25.5523 8 26 8.44772 26 9V31C26 31.5523 25.5523 32 25 32C24.4477 32 24 31.5523 24 31V9C24 8.44772 24.4477 8 25 8Z" fill="#FEBA02"/>
<path fill-rule="evenodd" clip-rule="evenodd" d="M19.318 13.318C20.1619 12.4741 21.3065 12 22.5 12H30C30.5523 12 31 12.4477 31 13C31 13.5523 30.5523 14 30 14H22.5C21.837 14 21.2011 14.2634 20.7322 14.7322C20.2634 15.2011 20 15.837 20 16.5C20 17.163 20.2634 17.7989 20.7322 18.2678C21.2011 18.7366 21.837 19 22.5 19H27.5C28.6935 19 29.8381 19.4741 30.682 20.318C31.5259 21.1619 32 22.3065 32 23.5C32 24.6935 31.5259 25.8381 30.682 26.682C29.8381 27.5259 28.6935 28 27.5 28H19C18.4477 28 18 27.5523 18 27C18 26.4477 18.4477 26 19 26H27.5C28.163 26 28.7989 25.7366 29.2678 25.2678C29.7366 24.7989 30 24.163 30 23.5C30 22.837 29.7366 22.2011 29.2678 21.7322C28.7989 21.2634 28.163 21 27.5 21H22.5C21.3065 21 20.1619 20.5259 19.318 19.682C18.4741 18.8381 18 17.6935 18 16.5C18 15.3065 18.4741 14.1619 19.318 13.318Z" fill="#FEBA02"/>
</svg>
