<svg width="32" height="28" viewBox="0 0 32 28" fill="none" xmlns="http://www.w3.org/2000/svg">
<path fill-rule="evenodd" clip-rule="evenodd" d="M13.7764 0.562546C14.3798 0.222807 15.0606 0.0443268 15.7531 0.0443268C16.4456 0.0443268 17.1265 0.222807 17.7299 0.562546C18.3333 0.902285 18.839 1.39181 19.1982 1.9839L19.202 1.99028L30.578 20.9816L30.5889 21.0001C30.9407 21.6094 31.1269 22.3001 31.1288 23.0037C31.1308 23.7072 30.9485 24.3991 30.6001 25.0103C30.2517 25.6215 29.7493 26.1309 29.143 26.4877C28.5366 26.8445 27.8474 27.0363 27.1439 27.044L27.1291 27.0442L4.36242 27.0441C3.65891 27.0364 2.96968 26.8445 2.36332 26.4877C1.75695 26.1309 1.25457 25.6215 0.906172 25.0103C0.557771 24.3991 0.375487 23.7072 0.377457 23.0037C0.379427 22.3001 0.565582 21.6094 0.917401 21.0001L0.928311 20.9816L12.3043 1.99029L13.4564 2.68045L12.3081 1.9839C12.6673 1.39181 13.173 0.902285 13.7764 0.562546ZM14.6064 3.37436L3.23917 22.3511C3.12477 22.5523 3.06427 22.7797 3.06362 23.0112C3.06297 23.2457 3.12373 23.4763 3.23986 23.6801C3.356 23.8838 3.52345 24.0536 3.72558 24.1725C3.92593 24.2904 4.15342 24.3543 4.38578 24.3579H27.1205C27.3529 24.3543 27.5803 24.2904 27.7807 24.1725C27.9828 24.0536 28.1503 23.8838 28.2664 23.6801C28.3826 23.4763 28.4433 23.2457 28.4427 23.0112C28.442 22.7797 28.3815 22.5523 28.2672 22.3512L16.9015 3.37703C16.9009 3.37614 16.9004 3.37525 16.8999 3.37436C16.7802 3.17819 16.6123 3.01598 16.4121 2.90324C16.2109 2.79 15.984 2.7305 15.7531 2.7305C15.5223 2.7305 15.2954 2.79 15.0942 2.90324C14.894 3.01598 14.726 3.17819 14.6064 3.37436Z" fill="white"/>
<path fill-rule="evenodd" clip-rule="evenodd" d="M15.7537 8.24086C16.4955 8.24086 17.0968 8.84218 17.0968 9.58395V14.9563C17.0968 15.6981 16.4955 16.2994 15.7537 16.2994C15.012 16.2994 14.4106 15.6981 14.4106 14.9563V9.58395C14.4106 8.84218 15.012 8.24086 15.7537 8.24086Z" fill="white"/>
<path fill-rule="evenodd" clip-rule="evenodd" d="M14.4106 20.3287C14.4106 19.5869 15.012 18.9856 15.7537 18.9856H15.7672C16.5089 18.9856 17.1103 19.5869 17.1103 20.3287C17.1103 21.0704 16.5089 21.6718 15.7672 21.6718H15.7537C15.012 21.6718 14.4106 21.0704 14.4106 20.3287Z" fill="white"/>
</svg>
