<svg width="75" height="67" viewBox="0 0 75 67" fill="none" xmlns="http://www.w3.org/2000/svg">
<g clip-path="url(#clip0)">
<path d="M74.0724 7.07735V63.174C68.387 65.3808 62.2769 66.5802 55.9144 66.5802C25.5383 66.5802 0.84203 39.2096 0.84203 5.35309C0.84203 3.6892 0.901726 2.04088 1.01886 0.410634H67.8344C71.0266 0.410634 74.0724 3.29996 74.0724 7.07735Z" stroke="#CCD2DC" stroke-width="0.821268"/>
<path d="M39.8677 22.4247L37.697 20.6341L30.7026 29.1129L32.8733 30.9036L39.8677 22.4247Z" fill="#CCD2DC"/>
<path d="M32.4896 26.915L30.699 29.0857L40.9155 37.5136L42.7062 35.3429L32.4896 26.915Z" fill="#CCD2DC"/>
<path d="M47.9053 29.0421L45.7346 27.2514L38.7456 35.7238L40.9162 37.5145L47.9053 29.0421Z" fill="#CCD2DC"/>
<path d="M46.133 35.0153L48.3037 36.8059L54.6805 29.0757L52.5098 27.2851L46.133 35.0153Z" fill="#CCD2DC"/>
<path d="M53.4313 30.5903L55.2219 28.4196L45.0054 19.9918L43.2147 22.1624L53.4313 30.5903Z" fill="#CCD2DC"/>
<path d="M38.0867 28.3779L40.2573 30.1686L46.6341 22.4384L44.4634 20.6478L38.0867 28.3779Z" fill="#CCD2DC"/>
</g>
<defs>
<clipPath id="clip0">
<rect width="74.0517" height="66.9909" fill="white" transform="translate(0.431396)"/>
</clipPath>
</defs>
</svg>
