<svg width="16" height="16" viewBox="0 0 16 16" fill="none" xmlns="http://www.w3.org/2000/svg">
<path fill-rule="evenodd" clip-rule="evenodd" d="M6.18373 2.57105C6.97473 2.39207 7.79817 2.41639 8.57722 2.64173C9.35628 2.86708 10.0656 3.2861 10.6389 3.8597L10.6524 3.87279L12.3328 5.45186H10.2469C9.91542 5.45186 9.64673 5.72054 9.64673 6.05198C9.64673 6.38341 9.91542 6.65209 10.2469 6.65209H13.8474C13.8582 6.6521 13.8689 6.65182 13.8797 6.65125C13.9172 6.64927 13.9537 6.64386 13.9891 6.63532C14.0987 6.60888 14.2022 6.55127 14.2852 6.46292C14.3988 6.34204 14.4526 6.18652 14.4477 6.03287V2.45126C14.4477 2.11982 14.179 1.85114 13.8476 1.85114C13.5161 1.85114 13.2474 2.11982 13.2474 2.45126V4.6643L11.4809 3.00438C10.7655 2.29089 9.88144 1.76954 8.91072 1.48876C7.93691 1.20708 6.9076 1.17668 5.91886 1.4004C4.93012 1.62411 4.01416 2.09465 3.25645 2.76811C2.49875 3.44157 1.92399 4.29599 1.58581 5.25166C1.47524 5.56411 1.6389 5.90703 1.95135 6.0176C2.26381 6.12816 2.60673 5.9645 2.71729 5.65205C2.98784 4.88752 3.44764 4.20398 4.05381 3.66521C4.65997 3.12645 5.39274 2.75002 6.18373 2.57105Z" fill="#5379FF"/>
<path fill-rule="evenodd" clip-rule="evenodd" d="M9.81529 12.6814C9.02429 12.8604 8.20085 12.836 7.4218 12.6107C6.64275 12.3854 5.93347 11.9663 5.36016 11.3927L5.34665 11.3796L3.66618 9.80058L5.75217 9.80058C6.08361 9.80058 6.35229 9.5319 6.35229 9.20047C6.35229 8.86903 6.08361 8.60035 5.75217 8.60035L2.15161 8.60035C2.14084 8.60034 2.13008 8.60062 2.11934 8.60119C2.08186 8.60317 2.0453 8.60858 2.00996 8.61712C1.90029 8.64356 1.79683 8.70117 1.71381 8.78952C1.60022 8.9104 1.54644 9.06592 1.55134 9.21957L1.55134 12.8012C1.55134 13.1326 1.82002 13.4013 2.15146 13.4013C2.48289 13.4013 2.75158 13.1326 2.75158 12.8012L2.75158 10.5881L4.51809 12.2481C5.23352 12.9616 6.11758 13.4829 7.0883 13.7637C8.06212 14.0454 9.09142 14.0758 10.0802 13.852C11.0689 13.6283 11.9849 13.1578 12.7426 12.4843C13.5003 11.8109 14.075 10.9565 14.4132 10.0008C14.5238 9.68833 14.3601 9.34541 14.0477 9.23485C13.7352 9.12428 13.3923 9.28794 13.2817 9.60039C13.0112 10.3649 12.5514 11.0485 11.9452 11.5872C11.3391 12.126 10.6063 12.5024 9.81529 12.6814Z" fill="#5379FF"/>
</svg>
