<svg width="23" height="28" viewBox="0 0 23 28" fill="none" xmlns="http://www.w3.org/2000/svg">
<path fill-rule="evenodd" clip-rule="evenodd" d="M1.13307 1.62557C1.82354 0.9351 2.76003 0.547195 3.73651 0.547195H13.5547C13.8802 0.547195 14.1923 0.676497 14.4225 0.906655L21.7861 8.27029C22.0163 8.50045 22.1456 8.81261 22.1456 9.1381V23.8654C22.1456 24.8419 21.7577 25.7783 21.0672 26.4688C20.3767 27.1593 19.4403 27.5472 18.4638 27.5472H3.73651C2.76003 27.5472 1.82354 27.1593 1.13307 26.4688C0.442592 25.7783 0.0546875 24.8419 0.0546875 23.8654V4.22901C0.0546875 3.25253 0.442592 2.31605 1.13307 1.62557ZM3.73651 3.00174C3.41101 3.00174 3.09885 3.13104 2.86869 3.3612C2.63853 3.59136 2.50923 3.90352 2.50923 4.22901V23.8654C2.50923 24.1909 2.63853 24.503 2.86869 24.7332C3.09885 24.9633 3.41101 25.0927 3.73651 25.0927H18.4638C18.7893 25.0927 19.1014 24.9633 19.3316 24.7332C19.5617 24.503 19.6911 24.1909 19.6911 23.8654V9.64646L13.0463 3.00174H3.73651Z" fill="#FEBA02"/>
<path fill-rule="evenodd" clip-rule="evenodd" d="M13.5547 0.547195C14.2325 0.547195 14.782 1.09666 14.782 1.77447V7.91083H20.9183C21.5961 7.91083 22.1456 8.4603 22.1456 9.1381C22.1456 9.81591 21.5961 10.3654 20.9183 10.3654H13.5547C12.8769 10.3654 12.3274 9.81591 12.3274 9.1381V1.77447C12.3274 1.09666 12.8769 0.547195 13.5547 0.547195Z" fill="#FEBA02"/>
<path fill-rule="evenodd" clip-rule="evenodd" d="M4.96378 15.2745C4.96378 14.5967 5.51325 14.0472 6.19105 14.0472H16.0092C16.687 14.0472 17.2365 14.5967 17.2365 15.2745C17.2365 15.9523 16.687 16.5017 16.0092 16.5017H6.19105C5.51325 16.5017 4.96378 15.9523 4.96378 15.2745Z" fill="#FEBA02"/>
<path fill-rule="evenodd" clip-rule="evenodd" d="M4.96378 20.1836C4.96378 19.5058 5.51325 18.9563 6.19105 18.9563H16.0092C16.687 18.9563 17.2365 19.5058 17.2365 20.1836C17.2365 20.8614 16.687 21.4108 16.0092 21.4108H6.19105C5.51325 21.4108 4.96378 20.8614 4.96378 20.1836Z" fill="#FEBA02"/>
<path fill-rule="evenodd" clip-rule="evenodd" d="M4.96378 10.3654C4.96378 9.68757 5.51325 9.1381 6.19105 9.1381H8.6456C9.3234 9.1381 9.87287 9.68757 9.87287 10.3654C9.87287 11.0432 9.3234 11.5927 8.6456 11.5927H6.19105C5.51325 11.5927 4.96378 11.0432 4.96378 10.3654Z" fill="#FEBA02"/>
</svg>
