<svg width="91" height="82" viewBox="0 0 91 82" fill="none" xmlns="http://www.w3.org/2000/svg">
<g clip-path="url(#clip0)">
<path d="M90.4829 4.96594V77.3004C83.4138 80.0888 75.8031 81.6066 67.8732 81.6066C30.5621 81.6066 0.31543 48.0047 0.31543 6.55463C0.31543 4.35863 0.400326 2.18466 0.566672 0.0365448H85.9827C88.4471 0.0365448 90.449 2.23707 90.4829 4.96594Z" fill="#FFF5D9"/>
<path fill-rule="evenodd" clip-rule="evenodd" d="M42.1331 22.6256C42.8235 21.9351 43.76 21.5472 44.7365 21.5472H54.5547C54.8802 21.5472 55.1923 21.6765 55.4225 21.9067L62.7861 29.2703C63.0163 29.5005 63.1456 29.8126 63.1456 30.1381V44.8654C63.1456 45.8419 62.7577 46.7783 62.0672 47.4688C61.3767 48.1593 60.4403 48.5472 59.4638 48.5472H44.7365C43.76 48.5472 42.8235 48.1593 42.1331 47.4688C41.4426 46.7783 41.0547 45.8419 41.0547 44.8654V25.229C41.0547 24.2525 41.4426 23.316 42.1331 22.6256ZM44.7365 24.0017C44.411 24.0017 44.0989 24.131 43.8687 24.3612C43.6385 24.5914 43.5092 24.9035 43.5092 25.229V44.8654C43.5092 45.1909 43.6385 45.503 43.8687 45.7332C44.0989 45.9633 44.411 46.0927 44.7365 46.0927H59.4638C59.7893 46.0927 60.1014 45.9633 60.3316 45.7332C60.5617 45.503 60.6911 45.1909 60.6911 44.8654V30.6465L54.0463 24.0017H44.7365Z" fill="#FEBA02"/>
<path fill-rule="evenodd" clip-rule="evenodd" d="M54.5547 21.5472C55.2325 21.5472 55.782 22.0967 55.782 22.7745V28.9108H61.9183C62.5961 28.9108 63.1456 29.4603 63.1456 30.1381C63.1456 30.8159 62.5961 31.3654 61.9183 31.3654H54.5547C53.8769 31.3654 53.3274 30.8159 53.3274 30.1381V22.7745C53.3274 22.0967 53.8769 21.5472 54.5547 21.5472Z" fill="#FEBA02"/>
<path fill-rule="evenodd" clip-rule="evenodd" d="M45.9638 36.2745C45.9638 35.5967 46.5132 35.0472 47.1911 35.0472H57.0092C57.687 35.0472 58.2365 35.5967 58.2365 36.2745C58.2365 36.9523 57.687 37.5017 57.0092 37.5017H47.1911C46.5132 37.5017 45.9638 36.9523 45.9638 36.2745Z" fill="#FEBA02"/>
<path fill-rule="evenodd" clip-rule="evenodd" d="M45.9638 41.1836C45.9638 40.5058 46.5132 39.9563 47.1911 39.9563H57.0092C57.687 39.9563 58.2365 40.5058 58.2365 41.1836C58.2365 41.8614 57.687 42.4108 57.0092 42.4108H47.1911C46.5132 42.4108 45.9638 41.8614 45.9638 41.1836Z" fill="#FEBA02"/>
<path fill-rule="evenodd" clip-rule="evenodd" d="M45.9638 31.3654C45.9638 30.6876 46.5132 30.1381 47.1911 30.1381H49.6456C50.3234 30.1381 50.8729 30.6876 50.8729 31.3654C50.8729 32.0432 50.3234 32.5927 49.6456 32.5927H47.1911C46.5132 32.5927 45.9638 32.0432 45.9638 31.3654Z" fill="#FEBA02"/>
</g>
<defs>
<clipPath id="clip0">
<rect width="90.1675" height="81.5701" fill="white" transform="translate(0.31543 0.0365448)"/>
</clipPath>
</defs>
</svg>
