<svg width="76" height="67" viewBox="0 0 76 67" fill="none" xmlns="http://www.w3.org/2000/svg">
<g clip-path="url(#clip0)">
<path d="M74.6152 7.07735V63.174C68.9297 65.3808 62.8196 66.5802 56.4571 66.5802C26.0811 66.5802 1.38475 39.2096 1.38475 5.35309C1.38475 3.6892 1.44445 2.04088 1.56158 0.410634H68.3771C71.5693 0.410634 74.6152 3.29996 74.6152 7.07735Z" stroke="#CCD2DC" stroke-width="0.821268"/>
<path fill-rule="evenodd" clip-rule="evenodd" d="M35.5461 24.293C35.5461 23.8395 35.9138 23.4719 36.3673 23.4719H45.4C45.8535 23.4719 46.2212 23.8395 46.2212 24.293V28.3988V32.5046C46.2212 32.9581 45.8535 33.3258 45.4 33.3258H36.3673C35.9138 33.3258 35.5461 32.9581 35.5461 32.5046V24.293ZM47.8635 26.8032V24.293C47.8635 22.9325 46.7606 21.8296 45.4 21.8296H36.3673C35.0067 21.8296 33.9038 22.9325 33.9038 24.293V32.5046C33.9038 33.8652 35.0067 34.9681 36.3673 34.9681H45.4C46.7606 34.9681 47.8635 33.8652 47.8635 32.5046V29.9945L52.3132 33.1728C52.5635 33.3516 52.8927 33.3755 53.1662 33.2348C53.4397 33.094 53.6116 32.8122 53.6116 32.5046V24.293C53.6116 23.9854 53.4397 23.7036 53.1662 23.5629C52.8927 23.4221 52.5635 23.446 52.3132 23.6248L47.8635 26.8032ZM51.9693 30.909L48.4551 28.3988L51.9693 25.8887V30.909Z" fill="#CCD2DC"/>
<circle cx="55.4616" cy="34.2216" r="2.37027" fill="#6ACF67"/>
</g>
<defs>
<clipPath id="clip0">
<rect width="74.0517" height="66.9909" fill="white" transform="translate(0.974121)"/>
</clipPath>
</defs>
</svg>
