<svg width="75" height="67" viewBox="0 0 75 67" fill="none" xmlns="http://www.w3.org/2000/svg">
<g clip-path="url(#clip0)">
<path d="M73.641 7.07735V63.174C67.9556 65.3808 61.8455 66.5802 55.483 66.5802C25.1069 66.5802 0.410634 39.2096 0.410634 5.35309C0.410634 3.6892 0.47033 2.04088 0.587461 0.410634H67.403C70.5952 0.410634 73.641 3.29996 73.641 7.07735Z" stroke="#CCD2DC" stroke-width="0.821268"/>
<path fill-rule="evenodd" clip-rule="evenodd" d="M47.7104 18.5449C47.7104 18.0007 47.2693 17.5595 46.725 17.5595C46.1808 17.5595 45.7396 18.0007 45.7396 18.5449V19.5303H39.8273V18.5449C39.8273 18.0007 39.3861 17.5595 38.8419 17.5595C38.2977 17.5595 37.8565 18.0007 37.8565 18.5449V19.5303H35.8859C34.2532 19.5303 32.9297 20.8538 32.9297 22.4865V26.428V36.282C32.9297 37.9146 34.2532 39.2381 35.8859 39.2381H49.6813C51.314 39.2381 52.6375 37.9146 52.6375 36.282V26.428V22.4865C52.6375 20.8538 51.314 19.5303 49.6813 19.5303H47.7104V18.5449ZM50.6667 25.4427V22.4865C50.6667 21.9423 50.2255 21.5011 49.6813 21.5011H47.7104V22.4865C47.7104 23.0307 47.2693 23.4719 46.725 23.4719C46.1808 23.4719 45.7396 23.0307 45.7396 22.4865V21.5011H39.8273V22.4865C39.8273 23.0307 39.3861 23.4719 38.8419 23.4719C38.2977 23.4719 37.8565 23.0307 37.8565 22.4865V21.5011H35.8859C35.3416 21.5011 34.9005 21.9423 34.9005 22.4865V25.4427H50.6667ZM34.9005 27.4134H50.6667V36.282C50.6667 36.8262 50.2255 37.2673 49.6813 37.2673H35.8859C35.3416 37.2673 34.9005 36.8262 34.9005 36.282V27.4134Z" fill="#CCD2DC"/>
<rect x="36.1851" y="28.3351" width="2.07855" height="2.07855" rx="1" fill="#CCD2DC"/>
<path fill-rule="evenodd" clip-rule="evenodd" d="M47.7104 18.5449C47.7104 18.0007 47.2693 17.5595 46.725 17.5595C46.1808 17.5595 45.7396 18.0007 45.7396 18.5449V19.5303H39.8273V18.5449C39.8273 18.0007 39.3861 17.5595 38.8419 17.5595C38.2977 17.5595 37.8565 18.0007 37.8565 18.5449V19.5303H35.8859C34.2532 19.5303 32.9297 20.8538 32.9297 22.4865V26.428V36.282C32.9297 37.9146 34.2532 39.2381 35.8859 39.2381H49.6813C51.314 39.2381 52.6375 37.9146 52.6375 36.282V26.428V22.4865C52.6375 20.8538 51.314 19.5303 49.6813 19.5303H47.7104V18.5449ZM50.6667 25.4427V22.4865C50.6667 21.9423 50.2255 21.5011 49.6813 21.5011H47.7104V22.4865C47.7104 23.0307 47.2693 23.4719 46.725 23.4719C46.1808 23.4719 45.7396 23.0307 45.7396 22.4865V21.5011H39.8273V22.4865C39.8273 23.0307 39.3861 23.4719 38.8419 23.4719C38.2977 23.4719 37.8565 23.0307 37.8565 22.4865V21.5011H35.8859C35.3416 21.5011 34.9005 21.9423 34.9005 22.4865V25.4427H50.6667ZM34.9005 27.4134H50.6667V36.282C50.6667 36.8262 50.2255 37.2673 49.6813 37.2673H35.8859C35.3416 37.2673 34.9005 36.8262 34.9005 36.282V27.4134Z" fill="#CCD2DC"/>
<rect x="36.1851" y="28.3351" width="2.07855" height="2.07855" rx="1" fill="#CCD2DC"/>
<rect x="38.9653" y="28.3351" width="2.07855" height="2.07855" rx="1" fill="#CCD2DC"/>
<rect x="41.7451" y="28.3351" width="2.07855" height="2.07855" rx="1" fill="#CCD2DC"/>
<rect x="44.5244" y="28.3351" width="2.07855" height="2.07855" rx="1" fill="#CCD2DC"/>
<rect x="47.3047" y="28.3351" width="2.07855" height="2.07855" rx="1" fill="#CCD2DC"/>
</g>
<defs>
<clipPath id="clip0">
<rect width="74.0517" height="66.9909" fill="white"/>
</clipPath>
</defs>
</svg>
