<svg width="24" height="20" viewBox="0 0 24 20" fill="none" xmlns="http://www.w3.org/2000/svg">
<path d="M6.46463 12.8617C6.27029 12.8617 6.07304 12.8352 5.8771 12.7795C5.5036 12.6734 5.28699 12.285 5.39326 11.9121C5.49952 11.5391 5.88868 11.3228 6.26194 11.4289C6.6564 11.5409 7.06819 11.3118 7.18037 10.9181C7.29254 10.5244 7.06308 10.113 6.66886 10.001C5.28615 9.61317 4.03604 8.65383 3.15108 7.30031C2.26116 5.93916 1.79077 4.29834 1.79077 2.5553V2.54986C1.79321 1.86455 2.06176 1.22353 2.54696 0.742406C3.02996 0.263437 3.67018 0 4.35047 0C4.35361 0 4.35662 4.6875e-05 4.35976 4.6875e-05C5.77135 0.0050625 6.91571 1.15589 6.91074 2.56542C6.90938 2.95233 6.5948 3.26508 6.20766 3.26508C6.20682 3.26508 6.20597 3.26508 6.20513 3.26508C5.81682 3.26372 5.50313 2.94825 5.50449 2.5605C5.50674 1.9252 4.99097 1.40653 4.35479 1.40428C4.04583 1.40222 3.75647 1.52198 3.5378 1.73883C3.31913 1.95567 3.1981 2.24456 3.19697 2.5523V2.5553C3.19697 4.00402 3.59883 5.41655 4.32858 6.53264C5.0273 7.60134 5.99429 8.35322 7.05141 8.64975C8.19376 8.97436 8.85727 10.164 8.5329 11.3025C8.2643 12.2452 7.40087 12.8616 6.46463 12.8617V12.8617Z" fill="#C4CAF3"/>
<path d="M17.5353 12.8617C16.599 12.8618 15.7357 12.2453 15.4671 11.3024C15.1427 10.164 15.8062 8.97431 16.9463 8.65036C18.0057 8.35317 18.9727 7.60134 19.6714 6.53264C20.4011 5.4165 20.803 4.00397 20.803 2.5553V2.54986C20.8019 2.24461 20.6809 1.95572 20.4622 1.73883C20.2445 1.52297 19.956 1.40428 19.6494 1.40428C19.648 1.40428 19.6466 1.40428 19.6452 1.40428C19.0091 1.40653 18.4933 1.9252 18.4956 2.5605C18.4969 2.94825 18.1833 3.26372 17.7949 3.26508C17.7941 3.26508 17.7933 3.26508 17.7924 3.26508C17.4052 3.26508 17.0907 2.95238 17.0893 2.56542C17.0844 1.15589 18.2287 0.0050625 19.6403 4.6875e-05C19.6434 4.6875e-05 19.6465 0 19.6496 0C20.3299 0 20.9701 0.263437 21.4531 0.742406C21.9384 1.22353 22.2069 1.86455 22.2093 2.54738V2.5553C22.2093 4.29834 21.7389 5.93916 20.849 7.30031C19.9641 8.65383 18.714 9.61317 17.3289 10.0017C16.937 10.113 16.7075 10.5245 16.8197 10.9181C16.9319 11.3118 17.3439 11.5409 17.7381 11.4289C18.1114 11.3228 18.5006 11.5391 18.6068 11.9121C18.7131 12.2851 18.4965 12.6735 18.123 12.7796C17.9271 12.8352 17.7296 12.8617 17.5353 12.8617V12.8617Z" fill="#A8B1EC"/>
<path d="M15.5509 19.8123H8.44893C8.06062 19.8123 7.74581 19.498 7.74581 19.1102C7.74581 17.5725 8.57381 16.1709 9.89053 15.4207V12.4847C9.58654 12.3555 9.29522 12.1988 9.02025 12.0162C7.5164 11.0176 6.61865 9.34481 6.61865 7.54148V0.702141C6.61865 0.314391 6.93346 0 7.32178 0H16.6781C17.0664 0 17.3812 0.314344 17.3812 0.702141V7.54148C17.3812 9.34486 16.4834 11.0176 14.9797 12.0162C14.7046 12.1988 14.4134 12.3555 14.1094 12.4847V15.4207C15.4261 16.1709 16.2541 17.5725 16.2541 19.1102C16.254 19.498 15.9392 19.8123 15.5509 19.8123V19.8123Z" fill="#E0E4F8"/>
<path d="M14.9794 12.0162C16.4833 11.0176 17.381 9.34486 17.381 7.54148V0.702141C17.381 0.314391 17.0662 0 16.6779 0H11.9998V19.8123H15.5507C15.939 19.8123 16.2538 19.4979 16.2538 19.1101C16.2538 17.5725 15.4258 16.1709 14.1091 15.4207V12.4847C14.4131 12.3555 14.7044 12.1988 14.9794 12.0162V12.0162Z" fill="#C4CAF3"/>
<path d="M11.8805 9.25186C11.0029 9.25186 10.9328 9.22852 10.84 9.19763C10.6154 9.12282 10.4405 8.9453 10.3719 8.72264C10.256 8.34624 10.4408 8.1045 10.7207 7.73855C10.9427 7.44825 11.356 6.90792 12.0489 5.91933C12.2714 5.6018 12.3626 5.37896 12.3993 5.24119L12.4088 5.16666C12.3915 4.95113 12.2103 4.78107 11.99 4.78107C11.7896 4.78107 11.6162 4.923 11.5778 5.11857C11.5029 5.49905 11.133 5.74688 10.7523 5.67221C10.3713 5.59744 10.1231 5.22839 10.1979 4.84791C10.3655 3.99549 11.1193 3.37683 11.99 3.37683C12.9972 3.37683 13.8164 4.19499 13.8164 5.20064C13.8164 5.23041 13.8146 5.26013 13.8108 5.28966L13.7891 5.45921C13.7861 5.48255 13.7819 5.50575 13.7766 5.52872C13.6903 5.90021 13.4967 6.30253 13.201 6.7245C12.877 7.18683 12.6123 7.55377 12.3987 7.84453C12.687 7.84285 12.9954 7.83994 13.2905 7.83624C13.6768 7.83193 13.9976 8.14177 14.0025 8.52947C14.0073 8.91722 13.6965 9.2355 13.3082 9.24038C12.6797 9.24839 12.2197 9.25186 11.8805 9.25186V9.25186Z" fill="#C4CAF3"/>
<path d="M13.875 14.5956H10.125C9.73669 14.5956 9.42188 14.2812 9.42188 13.8934C9.42188 13.5056 9.73669 13.1913 10.125 13.1913H13.875C14.2633 13.1913 14.5781 13.5056 14.5781 13.8934C14.5781 14.2812 14.2633 14.5956 13.875 14.5956Z" fill="#C4CAF3"/>
<path d="M13.8748 13.1913H11.9998V14.5955H13.8748C14.2631 14.5955 14.5779 14.2812 14.5779 13.8934C14.5779 13.5056 14.2631 13.1913 13.8748 13.1913Z" fill="#A8B1EC"/>
<path d="M13.2905 7.83638C12.9953 7.84008 12.6869 7.84294 12.3986 7.84467C12.6123 7.55391 12.8769 7.18692 13.2009 6.72464C13.4967 6.30267 13.6903 5.90035 13.7765 5.52886C13.7818 5.50589 13.786 5.48269 13.789 5.45935L13.8107 5.2898C13.8145 5.26027 13.8163 5.23055 13.8163 5.20078C13.8163 4.19841 13.0023 3.3825 11.9998 3.3772V4.78167C12.2155 4.78669 12.3916 4.9545 12.4087 5.1668L12.3992 5.24133C12.3625 5.3791 12.2713 5.60194 12.0488 5.91947C12.032 5.94338 12.0162 5.96583 11.9998 5.98922V9.25181C12.3255 9.25111 12.7503 9.2476 13.3081 9.24061C13.6964 9.23574 14.0072 8.91746 14.0024 8.52971C13.9975 8.14186 13.6768 7.83206 13.2905 7.83638V7.83638Z" fill="#A8B1EC"/>
</svg>
