<svg width="17" height="16" viewBox="0 0 17 16" fill="none" xmlns="http://www.w3.org/2000/svg">
<path d="M16.4317 5.62339L11.4839 4.90432L9.2721 0.420334C9.21169 0.297565 9.11231 0.198181 8.98954 0.137771C8.68165 -0.014229 8.30749 0.112437 8.15354 0.420334L5.94176 4.90432L0.993976 5.62339C0.857566 5.64288 0.732849 5.70719 0.637362 5.80462C0.521923 5.92327 0.458312 6.0829 0.460504 6.24843C0.462696 6.41395 0.530514 6.57184 0.649054 6.68739L4.22884 10.1775L3.3831 15.1058C3.36326 15.2205 3.37595 15.3384 3.41972 15.4462C3.46348 15.554 3.53658 15.6474 3.63072 15.7157C3.72485 15.7841 3.83626 15.8247 3.95232 15.833C4.06837 15.8413 4.18441 15.8169 4.2873 15.7625L8.71282 13.4358L13.1383 15.7625C13.2592 15.8269 13.3995 15.8483 13.5339 15.8249C13.873 15.7664 14.101 15.4449 14.0426 15.1058L13.1968 10.1775L16.7766 6.68739C16.874 6.5919 16.9383 6.46719 16.9578 6.33078C17.0104 5.98975 16.7727 5.67406 16.4317 5.62339V5.62339Z" fill="white"/>
</svg>
