<svg width="75" height="67" viewBox="0 0 75 67" fill="none" xmlns="http://www.w3.org/2000/svg">
<g clip-path="url(#clip0)">
<path d="M73.673 7.07735V63.174C67.9876 65.3808 61.8775 66.5802 55.515 66.5802C25.1389 66.5802 0.442616 39.2096 0.442616 5.35309C0.442616 3.6892 0.502312 2.04088 0.619444 0.410634H67.435C70.6272 0.410634 73.673 3.29996 73.673 7.07735Z" stroke="#CCD2DC" stroke-width="0.821268"/>
<path fill-rule="evenodd" clip-rule="evenodd" d="M46.7833 21.6664C46.3852 21.6214 45.9804 21.6345 45.5817 21.7071C44.7575 21.8573 43.9986 22.2551 43.4061 22.8475C42.8137 23.4399 42.4159 24.1988 42.2657 25.0231C42.1156 25.8473 42.2201 26.6977 42.5656 27.461C42.707 27.7736 42.64 28.1411 42.3974 28.3837L36.7015 34.0796C36.5282 34.253 36.4308 34.4881 36.4308 34.7332C36.4308 34.9783 36.5282 35.2134 36.7015 35.3868C36.8749 35.5601 37.11 35.6575 37.3551 35.6575C37.6003 35.6575 37.8354 35.5601 38.0087 35.3868L43.7046 29.6909C43.9472 29.4483 44.3147 29.3813 44.6273 29.5228C45.3906 29.8682 46.241 29.9727 47.0653 29.8226C47.8895 29.6724 48.6484 29.2746 49.2408 28.6822C49.8332 28.0898 50.231 27.3309 50.3812 26.5066C50.4538 26.108 50.4669 25.7032 50.4219 25.305L48.3018 27.4251C47.9936 27.7272 47.5793 27.8964 47.1478 27.8964C46.7162 27.8964 46.3019 27.7272 45.9938 27.4251L45.9879 27.4193L44.6632 26.0946C44.3611 25.7864 44.192 25.3721 44.192 24.9405C44.192 24.509 44.3612 24.0947 44.6632 23.7865L44.669 23.7806L46.7833 21.6664ZM45.2862 20.0852C46.4401 19.875 47.6307 20.0214 48.6993 20.505C48.9459 20.6165 49.1219 20.842 49.1704 21.1082C49.2189 21.3744 49.1337 21.6475 48.9424 21.8388L45.8406 24.9405L47.1478 26.2477L50.2495 23.146C50.4408 22.9546 50.7139 22.8694 50.9801 22.9179C51.2463 22.9664 51.4718 23.1425 51.5834 23.389C52.0669 24.4576 52.2133 25.6482 52.0031 26.8021C51.7928 27.9561 51.2359 29.0185 50.4065 29.8479C49.5771 30.6773 48.5147 31.2342 47.3608 31.4445C46.3984 31.6198 45.4106 31.5471 44.4893 31.2376L39.1744 36.5525C38.6919 37.035 38.0375 37.3061 37.3551 37.3061C36.6727 37.3061 36.0183 37.035 35.5358 36.5525C35.0533 36.07 34.7822 35.4156 34.7822 34.7332C34.7822 34.0508 35.0533 33.3964 35.5358 32.9139L40.8507 27.599C40.5412 26.6777 40.4685 25.6899 40.6439 24.7275C40.8541 23.5736 41.411 22.5112 42.2404 21.6818C43.0698 20.8524 44.1322 20.2955 45.2862 20.0852Z" fill="#CCD2DC"/>
</g>
<defs>
<clipPath id="clip0">
<rect width="74.0517" height="66.9909" fill="white" transform="translate(0.0319824)"/>
</clipPath>
</defs>
</svg>
