<svg width="28" height="28" viewBox="0 0 28 28" fill="none" xmlns="http://www.w3.org/2000/svg">
<path fill-rule="evenodd" clip-rule="evenodd" d="M13.7056 3.00174C7.60533 3.00174 2.66011 7.94696 2.66011 14.0472C2.66011 20.1474 7.60533 25.0927 13.7056 25.0927C19.8058 25.0927 24.751 20.1474 24.751 14.0472C24.751 7.94696 19.8058 3.00174 13.7056 3.00174ZM0.205566 14.0472C0.205566 6.59135 6.24972 0.547195 13.7056 0.547195C21.1614 0.547195 27.2056 6.59135 27.2056 14.0472C27.2056 21.503 21.1614 27.5472 13.7056 27.5472C6.24972 27.5472 0.205566 21.503 0.205566 14.0472Z" fill="#FEBA02"/>
<path fill-rule="evenodd" clip-rule="evenodd" d="M13.7056 5.45629C14.3834 5.45629 14.9328 6.00576 14.9328 6.68356V13.2887L19.1635 15.404C19.7698 15.7072 20.0155 16.4443 19.7124 17.0506C19.4092 17.6568 18.6721 17.9026 18.0658 17.5994L13.1567 15.1449C12.7409 14.937 12.4783 14.5121 12.4783 14.0472V6.68356C12.4783 6.00576 13.0278 5.45629 13.7056 5.45629Z" fill="#FEBA02"/>
</svg>
