<svg width="92" height="82" viewBox="0 0 92 82" fill="none" xmlns="http://www.w3.org/2000/svg">
<g clip-path="url(#clip0)">
<path d="M91.0884 4.96594V77.3004C84.0193 80.0888 76.4085 81.6066 68.4786 81.6066C31.1675 81.6066 0.920898 48.0047 0.920898 6.55463C0.920898 4.35863 1.0058 2.18466 1.17214 0.0365448H86.5881C89.0526 0.0365448 91.0544 2.23707 91.0884 4.96594Z" fill="#FFF5D9"/>
<path fill-rule="evenodd" clip-rule="evenodd" d="M52.7056 24.0017C46.6053 24.0017 41.6601 28.947 41.6601 35.0472C41.6601 41.1474 46.6053 46.0927 52.7056 46.0927C58.8058 46.0927 63.751 41.1474 63.751 35.0472C63.751 28.947 58.8058 24.0017 52.7056 24.0017ZM39.2056 35.0472C39.2056 27.5914 45.2497 21.5472 52.7056 21.5472C60.1614 21.5472 66.2056 27.5914 66.2056 35.0472C66.2056 42.503 60.1614 48.5472 52.7056 48.5472C45.2497 48.5472 39.2056 42.503 39.2056 35.0472Z" fill="#FEBA02"/>
<path fill-rule="evenodd" clip-rule="evenodd" d="M52.7056 26.4563C53.3834 26.4563 53.9328 27.0058 53.9328 27.6836V34.2887L58.1635 36.404C58.7698 36.7072 59.0155 37.4443 58.7124 38.0506C58.4092 38.6568 57.6721 38.9026 57.0658 38.5994L52.1567 36.1449C51.7409 35.937 51.4783 35.5121 51.4783 35.0472V27.6836C51.4783 27.0058 52.0278 26.4563 52.7056 26.4563Z" fill="#FEBA02"/>
</g>
<defs>
<clipPath id="clip0">
<rect width="90.1675" height="81.5701" fill="white" transform="translate(0.920898 0.0365448)"/>
</clipPath>
</defs>
</svg>
